<ttFont>
<head>
    <!-- Most of this table will be recalculated by the compiler -->
    <tableVersion value="1.0"/>
    <fontRevision value="2.01"/>
    <checkSumAdjustment value="0xb45b92f9"/>
    <magicNumber value="0x5f0f3cf5"/>
    <flags value="00000000 00000011"/>
    <unitsPerEm value="1000"/>
    <created value="Wed Feb  7 19:19:20 2018"/>
    <modified value="Wed Feb  7 19:19:20 2018"/>
    <xMin value="-431"/>
    <yMin value="-629"/>
    <xMax value="1790"/>
    <yMax value="953"/>
    <macStyle value="00000000 00000000"/>
    <lowestRecPPEM value="3"/>
    <fontDirectionHint value="2"/>
    <indexToLocFormat value="0"/>
    <glyphDataFormat value="0"/>
  </head>
          <CharString index="0">
            285 callgsubr
            -144 vlineto
            -36 -12 -21 -48 -48 -12 22 35 vhcurveto
            156 -64 callgsubr
            return
          </CharString>
          <CharString index="1">
            -97 callsubr
            -300 -73 callsubr
            return
          </CharString>
          <CharString index="2">
            -58 callgsubr
            -96 callsubr
            57 vlineto
            79 2 46 36 81 vvcurveto
            return
          </CharString>
          <CharString index="3">
            78 vlineto
            -10 -33 161 callsubr
            return
          </CharString>
          <CharString index="4">
            65 655 rmoveto
            -93 -72 92 -84 callsubr
            -91 return
          </CharString>
          <CharString index="5">
            138 callgsubr
            157 vlineto
            42 -9 21 0 vhcurveto
            return
          </CharString>
          <CharString index="6">
            0 12 -22 -41 vvcurveto
            -121 vlineto
            -45 -18 -28 -56 -19 -95 callgsubr
            return
          </CharString>
          <CharString index="7">
            -158 -98 callsubr
            return
          </CharString>
          <CharString index="8">
            4 callgsubr
            36 callgsubr
            -39 hvcurveto
            return
          </CharString>
          <CharString index="9">
            vlineto
            -99 callgsubr
            return
          </CharString>
          <CharString index="10">
            -97 callgsubr
            121 -85 return
          </CharString>
          <CharString index="11">
            -90 callgsubr
            70 hvcurveto
            return
          </CharString>
          <CharString index="12">
            82 callsubr
            -22 hhcurveto
            -78 -15 -51 callgsubr
            11 27 54 return
          </CharString>
          <CharString index="13">
            85 -88 callsubr
            return
          </CharString>
          <CharString index="14">
            -36 -16 -25 -8 callgsubr
            -81 vlineto
            -1 5 23 -2 13 hhcurveto
            90 48 53 85 hvcurveto
            return
          </CharString>
          <CharString index="15">
            -104 51 -57 124 25 20 2 3 16 vhcurveto
            -11 callsubr
            return
          </CharString>
          <CharString index="16">
            rmoveto
            32 11 17 25 24 -11 18 -32 -33 -11 -18 -24 -25 11 -17 33 hvcurveto
            144 hmoveto
            32 12 17 25 24 -12 18 -32 -33 -10 -18 -24 -25 10 -17 33 hvcurveto
            return
          </CharString>
          <CharString index="17">
            -104 callsubr
            51 -10 callgsubr
            return
          </CharString>
          <CharString index="18">
            rmoveto
            -66 30 -36 50 -25 vhcurveto
            81 -42 rlineto
            50 -26 12 -14 -32 vvcurveto
            -18 vlineto
            -41 -22 -25 -86 -46 -41 8 9 -26 vhcurveto
            -85 vlineto
            -8 30 36 -7 249 callsubr
            96 hvcurveto
            26 vlineto
            62 -34 35 -53 27 vhcurveto
            -84 46 rlineto
            -41 20 -13 15 37 vvcurveto
            20 vlineto
            44 15 23 79 42 43 -9 -9 24 vhcurveto
            84 vlineto
            9 -28 -45 7 -41 hhcurveto
            -130 -49 -51 -93 hvcurveto
            return
          </CharString>
          <CharString index="19">
            583 92 72 return
          </CharString>
          <CharString index="20">
            -9 -55 -103 callgsubr
            return
          </CharString>
          <CharString index="21" raw="1">
            3a0af71b 07ae0b  
          </CharString>
          <CharString index="22">
            -49 callgsubr
            22 35 vhcurveto
            114 vlineto
            35 10 8 callsubr
            return
          </CharString>
          <CharString index="23">
            315 callsubr
            72 return
          </CharString>
          <CharString index="24">
            -77 callgsubr
            -57 return
          </CharString>
          <CharString index="25">
            115 callgsubr
            139 callsubr
            7 hhcurveto
            95 42 49 84 169 callgsubr
            83 -46 53 -100 -38 -32 -10 0 vhcurveto
            93 286 72 return
          </CharString>
          <CharString index="26" raw="1">
            f74b0a89 0a1e391d 0b 
          </CharString>
          <CharString index="27">
            61 52 154 rmoveto
            163 callgsubr
            58 70 94 vhcurveto
            369 vlineto
            95 -58 69 -123 -123 -57 -69 -95 vhcurveto
            269 -366 rmoveto
            -50 -25 -33 -64 -63 -25 34 49 vhcurveto
            363 vlineto
            50 25 34 63 64 25 -34 -50 vhcurveto
            return
          </CharString>
          <CharString index="28">
            126 callsubr
            -37 -26 -8 0 hvcurveto
            -73 vlineto
            0 23 9 32 56 72 callsubr
            -103 -102 -21 17 59 vhcurveto
            24 vlineto
            41 18 20 58 vhcurveto
            58 75 -60 201 callsubr
            24 35 vvcurveto
            return
          </CharString>
          <CharString index="29">
            241 191 -85 callsubr
            return
          </CharString>
          <CharString index="30">
            vlineto
            -101 callgsubr
            return
          </CharString>
          <CharString index="31">
            -44 callsubr
            58 134 callsubr
            return
          </CharString>
          <CharString index="32">
            -23 -76 callsubr
            return
          </CharString>
          <CharString index="33">
            52 301 574 rmoveto
            -467 vlineto
            -3 -4 -33 -23 -46 hhcurveto
            -45 -22 24 45 hvcurveto
            424 -94 -436 vlineto
            -90 48 -50 90 60 42 24 5 9 vhcurveto
            -27 return
          </CharString>
          <CharString index="34">
            vlineto
            -75 callgsubr
            return
          </CharString>
          <CharString index="35">
            rmoveto
            112 vlineto
            37 12 23 56 55 12 -23 -37 vhcurveto
            -112 342 callgsubr
            return
          </CharString>
          <CharString index="36">
            0 9 -30 callgsubr
            -137 vlineto
            -35 return
          </CharString>
          <CharString index="37">
            79 vlineto
            -11 -35 -32 -9 -49 hhcurveto
            -69 -36 128 callsubr
            17 28 -6 34 hhcurveto
            102 47 49 87 hvcurveto
            return
          </CharString>
          <CharString index="38">
            -104 -42 -45 -82 hvcurveto
            -43 callsubr
            return
          </CharString>
          <CharString index="39">
            rlineto
            30 7 22 17 52 hhcurveto
            22 17 -4 0 hvcurveto
            73 vlineto
            0 -20 3 -24 -115 49 callgsubr
            return
          </CharString>
          <CharString index="40">
            -72 284 -70 callgsubr
            return
          </CharString>
          <CharString index="41">
            rmoveto
            -37 -60 -38 60 rlineto
            -51 hlineto
            53 -109 rlineto
            72 hlineto
            53 216 callsubr
          </CharString>
          <CharString index="42">
            50 callsubr
            43 37 304 callgsubr
            return
          </CharString>
          <CharString index="43">
            rmoveto
            -9 vlineto
            -22 -5 -11 -17 vhcurveto
            1 -26 -31 40 -49 hhcurveto
            -51 -22 -36 -48 hvcurveto
            -10 58 9 vlineto
            22 6 11 16 vhcurveto
            30 30 -41 47 hhcurveto
            47 25 32 51 hvcurveto
            11 vlineto
            endchar
          </CharString>
          <CharString index="44">
            -78 callgsubr
            -100 -48 -53 -87 hvcurveto
            return
          </CharString>
          <CharString index="45">
            -106 84 241 callgsubr
            22 hhcurveto
            56 15 -24 -37 292 callgsubr
            -36 -9 -23 -46 -1 vhcurveto
            -6 -6 1 -4 hhcurveto
            -79 vlineto
            -1 4 9 -1 9 38 callgsubr
            -46 47 -99 -30 -25 -4 -4 -12 vhcurveto
            86 288 72 return
          </CharString>
          <CharString index="46">
            -69 callgsubr
            -7 21 0 vhcurveto
            return
          </CharString>
          <CharString index="47">
            -10 callsubr
            -25 -14 -79 vhcurveto
            -22 return
          </CharString>
          <CharString index="48">
            -25 -34 -5 -41 hhcurveto
            -88 -38 return
          </CharString>
          <CharString index="49">
            rmoveto
            -40 -109 rlineto
            55 hlineto
            63 216 callsubr
          </CharString>
          <CharString index="50">
            74 vlineto
            -12 -40 -33 -5 -56 hhcurveto
            -77 -33 27 47 hvcurveto
            43 -34 callgsubr
            return
          </CharString>
          <CharString index="51">
            -79 callsubr
            endchar
          </CharString>
          <CharString index="52">
            104 355 677 rmoveto
            -293 vlineto
            -124 11 -77 -39 vvcurveto
            -15 40 -23 71 -41 105 -125 317 rcurveline
            -100 -677 91 297 hlineto
            -1 124 -10 75 -1 39 15 -40 25 -71 41 -105 125 -319 rcurveline
            99 677 hlineto
            return
          </CharString>
          <CharString index="53">
            25 37 hvcurveto
            171 vlineto
            36 return
          </CharString>
          <CharString index="54">
            vlineto
            -61 callsubr
            return
          </CharString>
          <CharString index="55">
            -132 83 -64 153 79 68 19 13 43 vhcurveto
            -21 35 46 -9 50 hhcurveto
            43 38 198 callgsubr
            -492 -72 123 vlineto
            112 callgsubr
            -127 hlineto
            -33 6 -28 11 -23 vhcurveto
            -8 -40 -44 -7 -43 331 callgsubr
            473 238 25 callsubr
          </CharString>
          <CharString index="56">
            166 rmoveto
            87 -50 43 -107 vhcurveto
            -20 hlineto
            -53 -14 22 34 hvcurveto
            22 162 callsubr
            159 72 -533 177 callsubr
            -29 vlineto
            -86 264 callgsubr
            20 hlineto
            58 14 -23 -35 hvcurveto
            -32 vlineto
            -47 -35 -16 -63 -49 -52 7 9 -38 vhcurveto
            -78 vlineto
            return
          </CharString>
          <CharString index="57">
            -125 85 -60 137 49 54 7 9 35 vhcurveto
            return
          </CharString>
          <CharString index="58">
            44 -47 98 98 43 47 return
          </CharString>
          <CharString index="59">
            -89 47 -50 106 59 callsubr
            85 583 93 72 return
          </CharString>
          <CharString index="60">
            38 vlineto
            93 -52 38 -77 -28 -18 -6 0 vhcurveto
            -75 vlineto
            0 17 5 20 33 22 -16 -41 vhcurveto
            -33 vlineto
            -41 -15 -28 -64 -64 -15 29 41 vhcurveto
            222 vlineto
            36 13 23 58 vhcurveto
            return
          </CharString>
          <CharString index="61">
            rmoveto
            86 -50 44 -107 vhcurveto
            -20 hlineto
            -53 -14 21 34 hvcurveto
            28 162 callsubr
            99 72 return
          </CharString>
          <CharString index="62">
            vlineto
            79 2 46 36 81 vvcurveto
            return
          </CharString>
          <CharString index="63">
            180 callgsubr
            23 28 return
          </CharString>
          <CharString index="64">
            -118 -27 callgsubr
            return
          </CharString>
          <CharString index="65">
            270 callsubr
            -29 hhcurveto
            -55 114 callgsubr
            return
          </CharString>
          <CharString index="66">
            hhcurveto
            -69 -41 20 60 hvcurveto
            42 vlineto
            36 155 callgsubr
            79 -38 hlineto
            -57 -12 24 35 hvcurveto
            47 246 callsubr
            return
          </CharString>
          <CharString index="67">
            92 callgsubr
            -55 -54 return
          </CharString>
          <CharString index="68">
            rmoveto
            -26 -131 rlineto
            38 hlineto
            15 22 35 153 callsubr
            endchar
          </CharString>
          <CharString index="69">
            -48 callgsubr
            -50 callsubr
            return
          </CharString>
          <CharString index="70">
            99 hlineto
            166 205 rlineto
            0 vlineto
            378 vmoveto
            -306 vlineto
            -4 -11 -26 -7 -33 hhcurveto
            -59 -19 26 36 hvcurveto
            255 vlineto
            endchar
          </CharString>
          <CharString index="71">
            85 -60 callgsubr
            return
          </CharString>
          <CharString index="72">
            141 callgsubr
            308 81 -216 221 188 80 -188 215 216 80 vlineto
            return
          </CharString>
          <CharString index="73">
            179 callgsubr
            -38 -12 -22 -28 -29 12 -22 38 hvcurveto
            return
          </CharString>
          <CharString index="74">
            -422 -84 73 vlineto
            -3 -12 -28 -6 -30 hhcurveto
            -99 -46 44 87 hvcurveto
            176 vlineto
            86 46 47 99 12 12 -1 -2 5 vhcurveto
            -73 vlineto
            1 -5 -9 1 -7 hhcurveto
            -56 -15 -25 -36 hvcurveto
            -171 vlineto
            -37 15 -25 56 27 24 6 4 11 vhcurveto
            return
          </CharString>
          <CharString index="75">
            -21 25 38 -12 51 hhcurveto
            40 34 246 callgsubr
            92 72 -430 -72 253 vlineto
            3 -433 rmoveto
            -4 -10 -30 77 callsubr
            22 28 58 134 callsubr
            12 vhcurveto
            endchar
          </CharString>
          <CharString index="76">
            289 callsubr
            318 callgsubr
            6 vhcurveto
            73 vlineto
            2 -6 -12 1 -12 hhcurveto
            return
          </CharString>
          <CharString index="77">
            50 150 574 rmoveto
            -88 -574 93 469 hlineto
            13 26 29 10 33 105 callsubr
            447 vlineto
            86 -54 44 -77 -48 -45 -18 -11 -23 vhcurveto
            return
          </CharString>
          <CharString index="78">
            386 253 -13 callgsubr
            -803 -72 271 vlineto
            -48 callgsubr
            -118 75 -53 124 -5 vhcurveto
            -136 -94 rlineto
            -4 vlineto
            114 -11 138 110 rlineto
            78 vlineto
            -7 -23 -38 -4 -27 -20 callsubr
            return
          </CharString>
          <CharString index="79">
            -43 -25 -26 -65 -35 -42 6 9 -32 vhcurveto
            -79 vlineto
            -9 30 40 -5 40 hhcurveto
            119 53 55 90 1 hvcurveto
            33 104 -213 85 583 return
          </CharString>
          <CharString index="80">
            122 callgsubr
            -27 hhcurveto
            return
          </CharString>
          <CharString index="81">
            0 8 -30 callgsubr
            return
          </CharString>
          <CharString index="82">
            -46 104 134 callgsubr
            vhcurveto
            return
          </CharString>
          <CharString index="83">
            hhcurveto
            -2 callsubr
            hvcurveto
            -11 callsubr
            return
          </CharString>
          <CharString index="84">
            -72 callsubr
            -78 112 rmoveto
            211 callsubr
            -108 -38 -47 -87 vhcurveto
            16 -353 17 callsubr
            352 72 -705 -4 callsubr
            endchar
          </CharString>
          <CharString index="85">
            -83 42 -25 callsubr
            return
          </CharString>
          <CharString index="86">
            101 callsubr
            endchar
          </CharString>
          <CharString index="87">
            60 callgsubr
            24 -4 -3 14 vhcurveto
            return
          </CharString>
          <CharString index="88">
            -74 -94 callsubr
            -177 -504 vlineto
            -7 -27 -30 -6 -42 hhcurveto
            -67 -41 19 61 hvcurveto
            46 vlineto
            35 155 callgsubr
            79 94 callsubr
            58 vlineto
            41 12 22 0 vhcurveto
            87 72 return
          </CharString>
          <CharString index="89">
            -87 44 -47 98 98 43 47 87 vhcurveto
            124 callsubr
          </CharString>
          <CharString index="90">
            13 -26 -35 vhcurveto
            -135 85 return
          </CharString>
          <CharString index="91">
            -106 96 678 rmoveto
            -28 -104 rlineto
            -63 -79 60 -366 hlineto
            -85 42 -50 98 38 34 11 1 6 vhcurveto
            83 vlineto
            -2 -6 -29 -9 -30 hhcurveto
            -40 -21 17 41 hvcurveto
            359 117 79 -117 104 vlineto
            return
          </CharString>
          <CharString index="92">
            -33 callgsubr
            -122 84 return
          </CharString>
          <CharString index="93">
            148 callgsubr
            endchar
          </CharString>
          <CharString index="94">
            rmoveto
            -6 24 23 -3 36 329 callsubr
            157 vlineto
            24 callgsubr
            -1145 -72 77 -333 hlineto
            150 callgsubr
            27 2 19 hhcurveto
            57 11 -23 -39 hvcurveto
            -82 85 84 vlineto
            81 -38 53 -109 -21 -33 -2 -5 -17 vhcurveto
            94 585 -99 -286 -77 74 312 callsubr
            -58 -31 -24 3 6 -26 vhcurveto
            -302 66 rmoveto
            26 callsubr
          </CharString>
          <CharString index="95">
            161 -46 callsubr
            return
          </CharString>
          <CharString index="96">
            -82 callgsubr
            135 334 callgsubr
            25 22 106 callsubr
            return
          </CharString>
          <CharString index="97">
            -105 callsubr
            -91 138 55 callsubr
            -63 vlineto
            -56 return
          </CharString>
          <CharString index="98">
            -108 -38 -47 -87 hvcurveto
            -112 vlineto
            -92 38 -42 108 return
          </CharString>
          <CharString index="99">
            -4 41 hhcurveto
            108 59 return
          </CharString>
          <CharString index="100">
            23 79 hlineto
            -26 callgsubr
            return
          </CharString>
          <CharString index="101">
            rmoveto
            -285 72 651 -72 -282 -86 hlineto
            4 12 25 4 30 hhcurveto
            98 47 -47 -87 hvcurveto
            -168 vlineto
            -81 -36 -53 -95 -9 -9 163 callsubr
            79 vlineto
            4 7 -1 6 hhcurveto
            45 1 10 23 36 vvcurveto
            160 vlineto
            37 -16 24 -55 -23 -21 -3 -5 -15 vhcurveto
            -33 callsubr
            endchar
          </CharString>
          <CharString index="102">
            21 0 vhcurveto
            return
          </CharString>
          <CharString index="103">
            -72 271 hlineto
            -38 callsubr
            return
          </CharString>
          <CharString index="104">
            84 vlineto
            -10 -31 -45 -7 -44 hhcurveto
            -78 -22 28 44 hvcurveto
            377 vlineto
            44 22 28 78 43 43 -8 -9 32 vhcurveto
            85 vlineto
            8 -29 -43 7 -47 hhcurveto
            -132 -60 -57 -92 hvcurveto
            return
          </CharString>
          <CharString index="105">
            25 20 2 3 16 return
          </CharString>
          <CharString index="106">
            -72 285 -437 vlineto
            -107 callgsubr
            vlineto
            return
          </CharString>
          <CharString index="107">
            143 callgsubr
            148 160 return
          </CharString>
          <CharString index="108">
            rmoveto
            -81 44 -41 85 -7 vhcurveto
            -132 -168 rlineto
            97 hlineto
            137 175 rlineto
            2 1 1 2 hhcurveto
            -115 83 255 -83 -73 vlineto
            -5 -23 -17 -3 -31 hhcurveto
            -58 -22 25 40 hvcurveto
            130 104 callgsubr
            95 72 return
          </CharString>
          <CharString index="109">
            67 46 140 rmoveto
            -99 54 -57 152 61 74 9 10 39 vhcurveto
            73 vlineto
            -9 -48 -59 -8 -63 hhcurveto
            -103 -23 32 52 hvcurveto
            53 vlineto
            36 17 22 58 vhcurveto
            81 hlineto
            -107 -130 78 -5 97 119 rlineto
            7 -10 2 -13 -17 vvcurveto
            -34 77 39 vlineto
            82 -36 37 -93 vhcurveto
            -112 301 callsubr
            189 147 113 72 -527 -72 329 -76 -104 hlineto
            -102 -48 -35 -83 hvcurveto
            -11 vlineto
            -46 17 -30 33 -16 vhcurveto
            -34 -18 -17 -27 -47 vvcurveto
            return
          </CharString>
          <CharString index="110">
            rmoveto
            -5 78 7 vlineto
            81 -36 53 -108 -28 -28 -2 -6 -21 vhcurveto
            87 227 72 -614 -72 304 -416 vlineto
            -3 -12 -23 -6 -28 hhcurveto
            -55 -16 25 36 hvcurveto
            150 -31 callsubr
            -98 -47 -47 -86 hvcurveto
            -144 vlineto
            -75 35 -43 73 -11 vhcurveto
            -129 -143 rlineto
            102 hlineto
            128 148 rlineto
            1 2 2 1 2 hhcurveto
            -105 84 201 callgsubr
            21 25 2 25 hhcurveto
            57 15 -23 -39 hvcurveto
            endchar
          </CharString>
          <CharString index="111">
            -4 callgsubr
            114 35 callgsubr
            return
          </CharString>
          <CharString index="112">
            465 253 -72 callsubr
            return
          </CharString>
          <CharString index="113">
            54 vhcurveto
            64 hlineto
            return
          </CharString>
          <CharString index="114">
            57 317 151 rmoveto
            -50 -24 -31 -63 -63 -23 31 50 vhcurveto
            66 vlineto
            50 23 33 63 63 24 -34 -49 vhcurveto
            -2 241 rmoveto
            -50 -22 -33 -63 -63 -22 34 49 vhcurveto
            69 vlineto
            50 22 30 63 63 22 -31 -49 vhcurveto
            -261 -67 rmoveto
            -57 20 -42 43 -23 vhcurveto
            -44 -24 -21 -42 -58 vvcurveto
            -64 vlineto
            -94 55 -66 123 123 55 66 94 vhcurveto
            64 vlineto
            58 -21 42 -44 24 vhcurveto
            43 23 20 42 57 vvcurveto
            67 vlineto
            95 -53 65 -123 -123 -53 -65 -95 vhcurveto
            endchar
          </CharString>
          <CharString index="115">
            22 6 callsubr
            return
          </CharString>
          <CharString index="116">
            26 callgsubr
            250 83 rmoveto
            38 -5 22 -3 6 vhcurveto
            110 -381 hlineto
            -21 -15 -32 -17 -59 hhcurveto
            -88 -32 36 69 152 callgsubr
            return
          </CharString>
          <CharString index="117">
            -47 callsubr
            140 159 99 72 -471 -72 288 -81 hlineto
            return
          </CharString>
          <CharString index="118">
            -41 19 62 hvcurveto
            42 56 callsubr
            61 vlineto
            41 9 22 0 vhcurveto
            return
          </CharString>
          <CharString index="119">
            rmoveto
            70 callgsubr
            return
          </CharString>
          <CharString index="120">
            75 vmoveto
            26 callsubr
          </CharString>
          <CharString index="121">
            -106 281 callsubr
            53 -40 103 vhcurveto
            7 hlineto
            54 13 -24 -34 hvcurveto
            -38 vlineto
            -37 -15 -22 -58 -26 -26 2 6 -18 vhcurveto
            64 -83 -226 83 return
          </CharString>
          <CharString index="122">
            42 -9 -5 callsubr
            return
          </CharString>
          <CharString index="123">
            vlineto
            15 callsubr
            return
          </CharString>
          <CharString index="124">
            rmoveto
            -91 callgsubr
            return
          </CharString>
          <CharString index="125">
            413 677 rmoveto
            -284 -677 rlineto
            67 hlineto
            283 677 rlineto
            -325 -229 rmoveto
            -35 -15 30 58 56 15 30 35 36 15 -30 -56 -58 -15 -30 -36 hvcurveto
            1 -63 rmoveto
            83 36 59 92 91 -36 59 -83 -83 -37 -59 -91 -92 37 -59 83 hvcurveto
            298 -329 rmoveto
            -36 -15 29 58 56 15 30 36 35 16 -29 -57 -58 -16 -29 -35 hvcurveto
            -64 vmoveto
            83 37 59 92 91 -37 59 -83 -83 -36 -59 -91 -92 36 -59 83 hvcurveto
            return
          </CharString>
          <CharString index="126">
            90 -47 56 -119 -40 -27 -7 -9 -22 vhcurveto
            -77 vlineto
            9 24 27 6 36 hhcurveto
            65 18 -29 -43 hvcurveto
            -164 vlineto
            -44 -18 -29 -65 -43 -27 8 7 -22 vhcurveto
            -77 vlineto
            -8 22 29 -7 42 hhcurveto
            119 48 55 89 hvcurveto
            return
          </CharString>
          <CharString index="127">
            592 636 253 -13 callgsubr
            -1053 -72 521 vlineto
            0 11 -30 callgsubr
            -121 vlineto
            -45 -17 -28 -56 -19 98 callsubr
            147 vlineto
            7 -50 -53 6 -51 hhcurveto
            -121 -52 -61 -86 hvcurveto
            -213 -44 callgsubr
            205 vlineto
            43 25 28 63 17 28 -2 -2 27 vhcurveto
            -228 vlineto
            return
          </CharString>
          <CharString index="128">
            520 -10 callsubr
            -26 189 callgsubr
            -38 -43 -7 -35 -41 callsubr
            return
          </CharString>
          <CharString index="129">
            -10 -56 -98 callgsubr
            return
          </CharString>
          <CharString index="130">
            rmoveto
            -26 -131 rlineto
            38 hlineto
            16 22 34 153 callsubr
            return
          </CharString>
          <CharString index="131">
            rmoveto
            38 26 -8 -5 13 hvcurveto
            -166 vlineto
            -161 135 rlineto
            27 9 24 17 51 hhcurveto
            -295 vmoveto
            -66 -22 29 41 hvcurveto
            118 vlineto
            165 -139 rlineto
            -39 vlineto
            -4 -13 -25 -6 -39 hhcurveto
            endchar
          </CharString>
          <CharString index="132">
            12 callsubr
            109 -408 hlineto
            -6 -25 -34 -5 -41 296 callgsubr
            endchar
          </CharString>
          <CharString index="133">
            -79 callgsubr
            endchar
          </CharString>
          <CharString index="134">
            18 14 -2 -7 9 hvcurveto
            -73 vlineto
            38 callsubr
            23 vhcurveto
            -96 90 callgsubr
            -542 -72 172 172 callgsubr
            -47 -18 -18 -53 -4 vhcurveto
            18 -16 -29 9 -43 hhcurveto
            -78 109 hlineto
            87 -44 49 -102 -101 -44 -49 -87 -22 4 -26 200 callgsubr
            24 22 vvcurveto
            35 8 25 52 53 8 -24 -36 vhcurveto
            -107 -64 vlineto
            return
          </CharString>
          <CharString index="135">
            -4 39 582 rmoveto
            11 32 35 6 49 hhcurveto
            77 20 -30 -44 hvcurveto
            -60 vlineto
            -51 -18 -32 -62 vhcurveto
            -70 -85 71 hlineto
            61 21 -29 -51 hvcurveto
            -64 vlineto
            -45 -22 -29 -77 -53 -45 11 12 -32 vhcurveto
            -88 vlineto
            -9 24 47 -10 61 hhcurveto
            131 59 58 93 hvcurveto
            82 vlineto
            65 -27 36 -48 13 vhcurveto
            47 18 25 41 62 vvcurveto
            69 vlineto
            93 -57 58 -132 -54 -36 -6 -8 -27 vhcurveto
            endchar
          </CharString>
          <CharString index="136">
            84 416 vlineto
            6 21 31 2 25 200 callsubr
            -6 77 8 316 callgsubr
            -28 -33 -3 -5 -21 vhcurveto
            -84 return
          </CharString>
          <CharString index="137">
            rmoveto
            -34 -20 -23 -35 -35 -20 23 34 vhcurveto
            -57 hlineto
            -62 1 42 -47 69 hhcurveto
            69 42 46 63 1 hvcurveto
            return
          </CharString>
          <CharString index="138">
            37 52 154 rmoveto
            -94 51 -70 123 123 51 70 94 vhcurveto
            128 vlineto
            95 -57 52 -99 -43 -32 -7 -11 -25 vhcurveto
            98 vlineto
            47 23 41 77 54 42 -8 -13 33 vhcurveto
            88 vlineto
            8 -24 -45 10 -61 hhcurveto
            -138 -53 -74 -92 hvcurveto
            256 -361 rmoveto
            -50 -19 -33 -63 -63 -19 33 50 vhcurveto
            174 vlineto
            10 17 33 9 36 hhcurveto
            50 28 -20 -52 hvcurveto
            endchar
          </CharString>
          <CharString index="139">
            rmoveto
            63 -109 rlineto
            55 hlineto
            -40 216 callsubr
          </CharString>
          <CharString index="140">
            rmoveto
            32 11 17 24 25 -11 18 -32 -33 -11 -18 -25 -24 11 -17 33 hvcurveto
            endchar
          </CharString>
          <CharString index="141">
            32 24 vlineto
            119 56 44 106 hvcurveto
            57 vlineto
            89 -34 50 -98 -99 -37 -52 -90 return
          </CharString>
          <CharString index="142">
            1 callgsubr
            -105 -48 -53 -86 hvcurveto
            return
          </CharString>
          <CharString index="143">
            61 callsubr
            115 44 36 6 7 27 vhcurveto
            -75 85 583 92 vlineto
            -177 hmoveto
            -432 vlineto
            -6 -21 -38 -7 -40 hhcurveto
            -67 11 callsubr
            endchar
          </CharString>
          <CharString index="144">
            2 callgsubr
            -455 -72 280 -84 -43 hlineto
            226 callsubr
            -207 vlineto
            return
          </CharString>
          <CharString index="145">
            -129 92 -46 114 43 38 6 5 return
          </CharString>
          <CharString index="146">
            -28 callsubr
            129 -84 callsubr
            return
          </CharString>
          <CharString index="147">
            -102 callsubr
            268 hlineto
            0 9 -25 279 callgsubr
            -35 -26 4 7 -28 vhcurveto
            -78 vlineto
            -7 26 24 -4 41 329 callsubr
            return
          </CharString>
          <CharString index="148">
            -10 31 677 rmoveto
            -79 236 vlineto
            -241 -519 rlineto
            -79 338 79 -242 vlineto
            244 521 rlineto
            77 vlineto
            return
          </CharString>
          <CharString index="149">
            -50 rmoveto
            -4 104 vlineto
            118 106 50 50 29 44 13 24 rlinecurve
            86 vlineto
            -10 399 rmoveto
            -485 -72 485 hlineto
            1 -99 rmoveto
            -363 -77 107 hlineto
            0 10 -22 -42 vvcurveto
            -89 vlineto
            -45 -26 -26 -59 -34 -26 4 8 -28 vhcurveto
            -78 vlineto
            -7 26 24 -8 callsubr
            50 96 hvcurveto
            95 16 callsubr
            170 hlineto
            return
          </CharString>
          <CharString index="150">
            78 vlineto
            -10 -33 -34 22 callsubr
            return
          </CharString>
          <CharString index="151">
            -87 46 -52 107 107 46 52 87 vhcurveto
            return
          </CharString>
          <CharString index="152">
            23 2 20 hhcurveto
            57 11 -23 return
          </CharString>
          <CharString index="153">
            hhcurveto
            -52 -30 -63 callsubr
            -183 vlineto
            183 callsubr
            12 43 1 1 7 vhcurveto
            77 vlineto
            -1 -7 -43 -1 -9 hhcurveto
            -78 -15 38 49 hvcurveto
            178 256 callsubr
            -133 85 133 vlineto
            38 10 25 50 55 7 -25 -38 vhcurveto
            -40 1 return
          </CharString>
          <CharString index="154">
            60 callgsubr
            23 -4 -3 15 vhcurveto
            endchar
          </CharString>
          <CharString index="155">
            vlineto
            -81 callgsubr
            return
          </CharString>
          <CharString index="156">
            -72 757 -90 -295 -77 84 hlineto
            0 9 -30 callgsubr
            -146 vlineto
            -45 -25 -26 -59 -21 -33 6 6 -27 vhcurveto
            6 17 3 20 23 vvcurveto
            155 vlineto
            93 -49 49 -114 -120 49 callgsubr
            116 39 31 6 11 24 vhcurveto
            -10 33 62 -14 49 hhcurveto
            107 59 51 96 hvcurveto
            return
          </CharString>
          <CharString index="157">
            -129 93 -46 114 return
          </CharString>
          <CharString index="158">
            vlineto
            -171 136 69 callsubr
            return
          </CharString>
          <CharString index="159">
            rmoveto
            -70 -16 30 43 hvcurveto
            100 vlineto
            146 -161 rlineto
            -8 -13 -20 -4 -27 hhcurveto
            87 73 rmoveto
            -3 0 -3 -3 vvcurveto
            -165 180 rlineto
            165 hlineto
            endchar
          </CharString>
          <CharString index="160">
            77 247 83 rmoveto
            55 58 32 37 8 17 rrcurveto
            -3 -14 -4 -47 -69 vvcurveto
            -65 82 -88 callsubr
            -537 -72 146 -218 vlineto
            -37 -16 -25 -48 vhcurveto
            -10 -15 2 -5 hhcurveto
            -80 vlineto
            -2 5 23 -1 13 hhcurveto
            90 48 52 86 hvcurveto
            223 129 -284 vlineto
            -265 -299 rlineto
            104 hlineto
            return
          </CharString>
          <CharString index="161">
            rmoveto
            305 callsubr
            return
          </CharString>
          <CharString index="162">
            rmoveto
            -26 callsubr
            return
          </CharString>
          <CharString index="163">
            vlineto
            35 15 25 34 callgsubr
            return
          </CharString>
          <CharString index="164">
            -17 vhcurveto
            55 callgsubr
            return
          </CharString>
          <CharString index="165">
            rmoveto
            -113 vlineto
            6 -19 -23 4 -27 hhcurveto
            -23 -32 -3 -6 -19 265 callgsubr
            return
          </CharString>
          <CharString index="166">
            121 callsubr
            vhcurveto
            -76 return
          </CharString>
          <CharString index="167">
            21 57 677 rmoveto
            -362 vlineto
            6 79 26 4 41 hhcurveto
            64 18 -25 -51 hvcurveto
            -97 vlineto
            -44 -24 -29 -76 -48 -44 11 14 -40 vhcurveto
            -88 vlineto
            -12 34 41 -9 59 hhcurveto
            132 59 58 92 hvcurveto
            113 vlineto
            95 -50 56 -104 -27 -22 -1 -3 -26 vhcurveto
            187 211 85 vlineto
            endchar
          </CharString>
          <CharString index="168">
            289 callgsubr
            -63 18 callgsubr
            -51 vlineto
            -100 70 -50 return
          </CharString>
          <CharString index="169">
            -72 520 223 callgsubr
            -55 -16 25 37 hvcurveto
            171 -31 callsubr
            -36 -29 -6 -13 -22 hvcurveto
            6 -34 -41 4 -38 267 callsubr
            return
          </CharString>
          <CharString index="170">
            -25 callsubr
            146 callsubr
          </CharString>
          <CharString index="171">
            hlineto
            323 callgsubr
            -59 -34 -26 4 7 -28 vhcurveto
            -78 vlineto
            -7 26 24 -4 41 329 callsubr
            return
          </CharString>
          <CharString index="172">
            -76 35 -43 74 -10 vhcurveto
            -130 -144 rlineto
            102 hlineto
            129 150 rlineto
            2 2 1 1 hhcurveto
            return
          </CharString>
          <CharString index="173">
            rmoveto
            254 callsubr
            return
          </CharString>
          <CharString index="174">
            -149 vlineto
            -434 vmoveto
            84 583 return
          </CharString>
          <CharString index="175">
            77 vlineto
            -8 -34 -48 -8 -54 hhcurveto
            -68 270 callgsubr
            74 315 callgsubr
            37 hlineto
            110 36 57 67 hvcurveto
            185 85 72 -512 -72 vlineto
            247 -241 rmoveto
            -57 -17 26 35 hvcurveto
            110 vlineto
            148 -159 rlineto
            -8 -12 -15 -4 -20 hhcurveto
            endchar
          </CharString>
          <CharString index="176">
            -68 callsubr
            118 return
          </CharString>
          <CharString index="177">
            -72 284 hlineto
            -106 callsubr
            -104 callsubr
            return
          </CharString>
          <CharString index="178">
            50 46 30 31 73 vvcurveto
            35 103 callsubr
            -35 vlineto
            -75 113 callgsubr
            return
          </CharString>
          <CharString index="179">
            15 -24 -47 vhcurveto
            -180 vlineto
            -60 -21 -22 return
          </CharString>
          <CharString index="180">
            -5 134 352 37 callsubr
            101 callsubr
            return
          </CharString>
          <CharString index="181">
            48 52 154 rmoveto
            -94 51 -70 123 123 51 70 94 vhcurveto
            369 vlineto
            95 -51 69 -123 -123 -51 -69 -95 vhcurveto
            256 -367 rmoveto
            -50 -19 -33 -63 -63 -19 34 49 vhcurveto
            365 vlineto
            50 19 34 63 63 19 -34 -50 vhcurveto
            endchar
          </CharString>
          <CharString index="182">
            296 727 rmoveto
            -153 -81 vlineto
            -102 -61 -58 -99 hvcurveto
            -279 vlineto
            -89 47 -52 91 58 33 23 16 17 vhcurveto
            -36 91 727 vlineto
            -93 -619 rmoveto
            -14 -16 -30 -14 -38 hhcurveto
            -45 -22 23 46 hvcurveto
            266 vlineto
            52 29 24 53 vhcurveto
            69 hlineto
            return
          </CharString>
          <CharString index="183">
            150 callsubr
            313 callgsubr
            return
          </CharString>
          <CharString index="184">
            131 callgsubr
            160 vlineto
            39 return
          </CharString>
          <CharString index="185">
            -71 callsubr
            -15 -27 -57 return
          </CharString>
          <CharString index="186">
            243 rmoveto
            56 321 callgsubr
            -25 2 6 -19 294 callgsubr
            102 48 40 91 hvcurveto
            40 vlineto
            29 -8 23 -17 13 vhcurveto
            128 -248 -94 callsubr
            return
          </CharString>
          <CharString index="187">
            113 callsubr
            291 callgsubr
            return
          </CharString>
          <CharString index="188">
            -72 271 hlineto
            0 13 -20 -43 vvcurveto
            -80 vlineto
            -36 -9 -29 -60 vhcurveto
            -66 -79 61 hlineto
            63 -1 11 -31 -38 vvcurveto
            -83 vlineto
            -46 -30 -23 -70 -40 -35 7 10 -36 vhcurveto
            -80 vlineto
            -9 39 31 -6 42 hhcurveto
            123 61 50 96 hvcurveto
            endchar
          </CharString>
          <CharString index="189">
            119 callsubr
            -21 -3 return
          </CharString>
          <CharString index="190">
            44 callgsubr
            93 72 return
          </CharString>
          <CharString index="191">
            137 vlineto
            42 return
          </CharString>
          <CharString index="192">
            370 -72 callsubr
            return
          </CharString>
          <CharString index="193">
            199 callsubr
            43 284 callgsubr
            63 hlineto
            return
          </CharString>
          <CharString index="194">
            257 callgsubr
            85 vlineto
            36 9 142 callsubr
            return
          </CharString>
          <CharString index="195">
            vvcurveto
            -60 18 callgsubr
            return
          </CharString>
          <CharString index="196">
            412 hlineto
            0 28 10 34 return
          </CharString>
          <CharString index="197">
            -112 811 rmoveto
            118 callsubr
            -89 -72 92 -84 callsubr
            -93 hlineto
            -102 159 rlineto
            54 -36 -34 17 153 callgsubr
            return
          </CharString>
          <CharString index="198">
            45 295 355 rmoveto
            -49 -23 -25 -59 -59 -24 25 49 vhcurveto
            80 vlineto
            48 24 25 59 59 23 -25 -48 vhcurveto
            return
          </CharString>
          <CharString index="199">
            342 callgsubr
            -62 -241 17 callsubr
            return
          </CharString>
          <CharString index="200">
            127 callsubr
            20 -11 -29 20 hvcurveto
            76 -117 rlineto
            88 hlineto
            return
          </CharString>
          <CharString index="201">
            -38 116 callgsubr
            return
          </CharString>
          <CharString index="202">
            rmoveto
            -4 -9 -26 -4 -31 hhcurveto
            -55 return
          </CharString>
          <CharString index="203">
            -46 11 -33 230 callsubr
            return
          </CharString>
          <CharString index="204">
            152 callsubr
            -94 callsubr
            return
          </CharString>
          <CharString index="205">
            172 callsubr
            vhcurveto
            return
          </CharString>
          <CharString index="206">
            rmoveto
            -66 -22 30 41 hvcurveto
            100 vlineto
            166 -140 rlineto
            -20 vlineto
            -4 -14 -25 -7 -39 hhcurveto
            277 vmoveto
            38 26 -8 -5 14 hvcurveto
            -167 vlineto
            -162 136 rlineto
            27 9 24 17 51 hhcurveto
            endchar
          </CharString>
          <CharString index="207">
            -85 callsubr
            154 72 rmoveto
            return
          </CharString>
          <CharString index="208">
            243 callgsubr
            211 callgsubr
            vhcurveto
            -15 callgsubr
            return
          </CharString>
          <CharString index="209">
            vlineto
            80 callsubr
            return
          </CharString>
          <CharString index="210">
            vlineto
            86 -43 48 -100 -99 -44 -48 -86 vhcurveto
            return
          </CharString>
          <CharString index="211">
            -72 77 -323 vlineto
            -86 47 -50 109 return
          </CharString>
          <CharString index="212">
            hhcurveto
            39 22 -19 -42 hvcurveto
            -431 93 return
          </CharString>
          <CharString index="213">
            -5 -6 14 vhcurveto
            -394 return
          </CharString>
          <CharString index="214">
            55 callgsubr
            -44 vlineto
            -112 74 -45 122 61 73 18 19 40 vhcurveto
            -20 35 45 -8 48 44 callgsubr
            92 72 -501 -72 vlineto
            endchar
          </CharString>
          <CharString index="215">
            rmoveto
            -55 234 55 vlineto
            endchar
          </CharString>
          <CharString index="216">
            55 callgsubr
            -25 vlineto
            -94 64 -51 104 -5 vhcurveto
            -141 -141 rlineto
            112 hlineto
            150 154 rlineto
            1 0 0 1 hhcurveto
            -105 181 callgsubr
            vlineto
            endchar
          </CharString>
          <CharString index="217">
            130 callsubr
            67 callgsubr
            return
          </CharString>
          <CharString index="218">
            hhcurveto
            -101 -43 -51 -86 hvcurveto
            -219 vlineto
            -87 42 -52 102 return
          </CharString>
          <CharString index="219">
            rmoveto
            74 -36 47 -78 11 vhcurveto
            78 192 72 return
          </CharString>
          <CharString index="220">
            -98 59 -43 106 41 29 7 5 12 vhcurveto
            -77 return
          </CharString>
          <CharString index="221">
            -83 -63 hlineto
            -107 -50 -41 -93 hvcurveto
            return
          </CharString>
          <CharString index="222">
            182 callgsubr
            -10 hvcurveto
            return
          </CharString>
          <CharString index="223">
            22 -38 -39 -12 -22 return
          </CharString>
          <CharString index="224">
            -56 -13 21 34 hvcurveto
            6 vlineto
            33 15 19 56 vhcurveto
            153 153 return
          </CharString>
          <CharString index="225">
            283 callgsubr
            20 -11 -29 19 hvcurveto
            77 -117 rlineto
            return
          </CharString>
          <CharString index="226">
            77 vlineto
            -2 -15 return
          </CharString>
          <CharString index="227">
            rmoveto
            -59 -23 26 37 hvcurveto
            177 vlineto
            164 -150 rlineto
            -76 vlineto
            -7 -23 -22 -7 -37 hhcurveto
            return
          </CharString>
          <CharString index="228">
            41 33 7 4 11 return
          </CharString>
          <CharString index="229">
            19 18 46 13 37 -2 -2 15 hvcurveto
            71 vlineto
            0 -54 4 -16 vhcurveto
            -4 -4 0 -4 hhcurveto
            44 vlineto
            52 -21 33 -40 -15 -16 -12 -19 -12 vhcurveto
            21 -10 5 -20 -24 vvcurveto
            -59 return
          </CharString>
          <CharString index="230">
            -81 -46 -46 -73 hvcurveto
            -12 vlineto
            -40 10 -28 34 -14 vhcurveto
            -35 -14 -14 -31 -41 vvcurveto
            -14 vlineto
            -83 54 -44 120 113 58 36 115 3 vhcurveto
            34 23 3 6 22 hvcurveto
            return
          </CharString>
          <CharString index="231">
            146 vlineto
            37 -9 27 -1 3 vhcurveto
            -81 hmoveto
            -66 callgsubr
          </CharString>
          <CharString index="232">
            286 callsubr
            60 vlineto
            39 14 -6 -37 hvcurveto
            -59 vlineto
            return
          </CharString>
          <CharString index="233">
            183 callgsubr
            169 -87 hlineto
            return
          </CharString>
          <CharString index="234">
            1 8 9 0 9 hhcurveto
            30 return
          </CharString>
          <CharString index="235">
            30 54 hvcurveto
            101 vlineto
            -6 return
          </CharString>
          <CharString index="236">
            -42 -109 rlineto
            49 hlineto
            65 109 rlineto
            return
          </CharString>
          <CharString index="237">
            -43 150 153 54 45 111 vhcurveto
            return
          </CharString>
          <CharString index="238">
            vlineto
            -167 133 rlineto
            29 7 23 17 52 hhcurveto
            21 17 -4 0 hvcurveto
            73 vlineto
            0 -20 3 -23 -115 -47 89 callgsubr
            51 -51 115 return
          </CharString>
          <CharString index="239">
            hhcurveto
            -59 -25 -44 callsubr
            59 vhcurveto
            9 8 -1 10 hhcurveto
            73 vlineto
            1 -12 -13 0 -10 hhcurveto
            -109 -48 -53 -86 hvcurveto
            -162 vlineto
            -89 return
          </CharString>
          <CharString index="240">
            287 callsubr
            -49 206 callgsubr
            return
          </CharString>
          <CharString index="241">
            36 30 -7 -4 return
          </CharString>
          <CharString index="242">
            vhcurveto
            -412 85 583 return
          </CharString>
          <CharString index="243">
            vlineto
            -60 -21 -22 -103 -102 -21 18 59 vhcurveto
            23 vlineto
            41 18 20 58 vhcurveto
            58 75 -60 201 callsubr
            24 35 vvcurveto
            128 vlineto
            47 18 21 48 vhcurveto
            return
          </CharString>
          <CharString index="244">
            -16 -13 -9 -20 -34 vvcurveto
            -131 vlineto
            184 callgsubr
            return
          </CharString>
          <CharString index="245">
            43 325 677 rmoveto
            -136 -336 142 -341 rlineto
            102 hlineto
            -146 343 137 334 rlineto
            -362 hmoveto
            -677 92 677 vlineto
            return
          </CharString>
          <CharString index="246">
            54 15 -36 callgsubr
            2 9 -1 return
          </CharString>
          <CharString index="247">
            hhcurveto
            123 60 48 93 hvcurveto
            return
          </CharString>
          <CharString index="248">
            168 callgsubr
            74 return
          </CharString>
          <CharString index="249">
            21 6 callsubr
            return
          </CharString>
          <CharString index="250">
            173 callgsubr
            -61 24 -44 52 -21 vhcurveto
            -73 return
          </CharString>
          <CharString index="251">
            6 3 13 vhcurveto
            -222 461 58 callsubr
            365 -386 rmoveto
            -3 -12 return
          </CharString>
          <CharString index="252">
            -8 vlineto
            -87 264 callgsubr
            -2 74 rmoveto
            -52 1 -13 20 34 vvcurveto
            5 vlineto
            34 14 19 53 vhcurveto
            152 153 113 -266 hlineto
            endchar
          </CharString>
          <CharString index="253">
            173 114 vlineto
            endchar
          </CharString>
          <CharString index="254">
            210 callgsubr
            -34 vlineto
            -87 264 callgsubr
            -39 callgsubr
            return
          </CharString>
          <CharString index="255">
            hhcurveto
            -199 hlineto
            -2 callgsubr
            -125 48 callsubr
            126 vlineto
            37 -9 15 -1 3 vhcurveto
            69 hlineto
            31 return
          </CharString>
          <CharString index="256">
            hlineto
            -98 -44 -46 -87 hvcurveto
            -132 48 callsubr
            return
          </CharString>
          <CharString index="257">
            12 callsubr
            109 335 callsubr
            -35 -5 -40 hhcurveto
            -88 return
          </CharString>
          <CharString index="258">
            47 49 4 -23 -40 vhcurveto
            -46 vlineto
            -68 -32 -17 -75 vhcurveto
            return
          </CharString>
          <CharString index="259">
            -10 callgsubr
            148 -282 return
          </CharString>
          <CharString index="260">
            55 27 vvcurveto
            18 -11 9 -18 vhcurveto
            return
          </CharString>
          <CharString index="261">
            -72 97 287 callsubr
            return
          </CharString>
          <CharString index="262">
            0 vhcurveto
            85 hlineto
            0 return
          </CharString>
          <CharString index="263">
            -49 100 vhcurveto
            23 79 hlineto
            -57 -1 -19 20 40 vvcurveto
            219 vlineto
            38 21 29 61 32 32 -7 -4 15 135 callsubr
            92 72 return
          </CharString>
          <CharString index="264">
            rlineto
            60 -20 -21 22 -48 hhcurveto
            -11 -9 -1 -2 -10 hvcurveto
            -72 vlineto
            1 7 7 1 7 hhcurveto
            24 9 -16 -30 11 hvcurveto
            43 -111 rlineto
            return
          </CharString>
          <CharString index="265">
            301 callgsubr
            10 254 callgsubr
            return
          </CharString>
          <CharString index="266">
            vlineto
            -65 callsubr
            return
          </CharString>
          <CharString index="267">
            39 190 callgsubr
            38 hvcurveto
            return
          </CharString>
          <CharString index="268">
            -33 22 callsubr
            return
          </CharString>
          <CharString index="269">
            285 callsubr
            147 153 return
          </CharString>
          <CharString index="270">
            1 1 -5 vhcurveto
            return
          </CharString>
          <CharString index="271">
            -85 83 255 -83 -94 vlineto
            -6 193 callgsubr
            -59 142 callgsubr
            37 15 23 58 vhcurveto
            147 160 return
          </CharString>
          <CharString index="272">
            -33 callgsubr
            13 callsubr
          </CharString>
          <CharString index="273">
            104 callgsubr
            94 72 return
          </CharString>
          <CharString index="274">
            24 36 265 callgsubr
            return
          </CharString>
          <CharString index="275">
            5 -15 -30 6 -43 hhcurveto
            return
          </CharString>
          <CharString index="276">
            44 60 vvcurveto
            -83 -1 -9 callgsubr
            endchar
          </CharString>
          <CharString index="277">
            hhcurveto
            39 28 7 5 14 hvcurveto
            447 vmoveto
            -371 vlineto
            -5 -12 -26 -7 -33 hhcurveto
            -59 -18 27 36 hvcurveto
            320 vlineto
            endchar
          </CharString>
          <CharString index="278">
            -76 callsubr
            12 vhcurveto
            return
          </CharString>
          <CharString index="279">
            -20 2 3 -17 return
          </CharString>
          <CharString index="280">
            -26 4 7 -28 vhcurveto
            -78 vlineto
            -7 26 24 -4 41 329 callsubr
            157 16 callsubr
            return
          </CharString>
          <CharString index="281">
            185 callsubr
            endchar
          </CharString>
          <CharString index="282">
            -45 6 callgsubr
            337 callgsubr
            598 vlineto
            return
          </CharString>
          <CharString index="283">
            vlineto
            -33 callgsubr
            return
          </CharString>
          <CharString index="284">
            230 callgsubr
            hlineto
            210 callgsubr
            return
          </CharString>
          <CharString index="285">
            493 rmoveto
            227 callgsubr
            return
          </CharString>
          <CharString index="286">
            15 callsubr
            126 -410 return
          </CharString>
          <CharString index="287">
            vlineto
            38 -9 26 -1 3 vhcurveto
            return
          </CharString>
          <CharString index="288">
            vlineto
            -56 -25 -14 -79 vhcurveto
            -22 return
          </CharString>
          <CharString index="289">
            hlineto
            0 -9 -27 -49 vvcurveto
            return
          </CharString>
          <CharString index="290">
            -104 51 -57 124 return
          </CharString>
          <CharString index="291">
            -72 263 -122 -61 hlineto
            -103 -42 -46 -83 hvcurveto
            -66 vlineto
            -83 40 -50 104 104 41 51 83 vhcurveto
            121 return
          </CharString>
          <CharString index="292">
            166 callsubr
            -467 -72 288 114 callsubr
            return
          </CharString>
          <CharString index="293">
            -250 89 rmoveto
            169 vlineto
            187 -210 rlineto
            -16 -16 -33 -14 -53 316 callsubr
            endchar
          </CharString>
          <CharString index="294">
            -115 133 677 rmoveto
            -121 -87 rlineto
            -103 vlineto
            122 88 rlineto
            -575 93 677 vlineto
            endchar
          </CharString>
          <CharString index="295">
            422 vlineto
            318 callsubr
            return
          </CharString>
          <CharString index="296">
            -436 vlineto
            -8 -24 -21 -4 -28 hhcurveto
            335 callgsubr
            return
          </CharString>
          <CharString index="297">
            85 vlineto
            46 -16 35 -34 22 vhcurveto
            34 23 16 36 47 vvcurveto
            return
          </CharString>
          <CharString index="298">
            rmoveto
            -3 -15 -3 -45 -67 vvcurveto
            -108 81 -88 callsubr
            return
          </CharString>
          <CharString index="299">
            2 45 36 81 vvcurveto
            return
          </CharString>
          <CharString index="300">
            53 292 callsubr
            return
          </CharString>
          <CharString index="301">
            138 rmoveto
            0 return
          </CharString>
          <CharString index="302">
            -39 hhcurveto
            -106 -44 -60 -90 hvcurveto
            -149 vlineto
            -93 53 -65 116 117 53 65 93 vhcurveto
            158 vlineto
            return
          </CharString>
          <CharString index="303">
            9 vlineto
            30 11 21 51 vhcurveto
            21 66 -19 hlineto
            -50 1 -9 20 31 vvcurveto
            9 vlineto
            37 16 15 36 vhcurveto
            return
          </CharString>
          <CharString index="304">
            72 -177 -480 vlineto
            -10 -42 -42 -4 return
          </CharString>
          <CharString index="305">
            vlineto
            38 18 26 60 60 18 -26 -38 vhcurveto
            return
          </CharString>
          <CharString index="306">
            92 callgsubr
            -54 -55 -9 22 35 vhcurveto
            return
          </CharString>
          <CharString index="307">
            hhcurveto
            56 16 -23 -38 hvcurveto
            return
          </CharString>
          <CharString index="308">
            hlineto
            -57 1 -12 return
          </CharString>
          <CharString index="309">
            -99 69 -51 118 vhcurveto
            3 3 0 3 hhcurveto
            -150 -131 rlineto
            107 hlineto
            151 138 rlineto
            return
          </CharString>
          <CharString index="310">
            rmoveto
            207 callgsubr
            309 callsubr
            vhcurveto
            38 vlineto
            93 return
          </CharString>
          <CharString index="311">
            -21 -38 vvcurveto
            -69 vlineto
            -36 -12 -21 -48 -48 -12 22 35 vhcurveto
            75 -64 callgsubr
            endchar
          </CharString>
          <CharString index="312">
            vlineto
            -87 46 -44 99 30 28 6 3 12 vhcurveto
            -73 84 return
          </CharString>
          <CharString index="313">
            79 vlineto
            -11 -35 -33 -9 -48 hhcurveto
            -70 -35 30 54 hvcurveto
            return
          </CharString>
          <CharString index="314">
            -42 vvcurveto
            -151 vlineto
            -45 -26 -25 return
          </CharString>
          <CharString index="315">
            -89 vlineto
            1 callgsubr
            return
          </CharString>
          <CharString index="316">
            -47 104 104 42 47 82 vhcurveto
            return
          </CharString>
          <CharString index="317">
            83 -60 callgsubr
            return
          </CharString>
          <CharString index="318">
            -112 vlineto
            -92 38 -42 108 108 38 42 92 vhcurveto
            112 vlineto
            87 -38 47 -108 return
          </CharString>
          <CharString index="319">
            175 callgsubr
            -41 hhcurveto
            -87 350 callgsubr
            return
          </CharString>
          <CharString index="320">
            rmoveto
            217 callsubr
            return
          </CharString>
          <CharString index="321">
            rmoveto
            -104 callsubr
            return
          </CharString>
          <CharString index="322">
            38 12 22 29 return
          </CharString>
          <CharString index="323">
            109 rlineto
            endchar
          </CharString>
          <CharString index="324">
            78 vlineto
            -10 -33 -34 -10 -55 -98 callgsubr
            return
          </CharString>
          <CharString index="325">
            -74 -23 28 43 hvcurveto
            46 vlineto
            36 17 22 58 vhcurveto
            return
          </CharString>
          <CharString index="326">
            -352 -677 rlineto
            64 hlineto
            352 677 rlineto
            return
          </CharString>
          <CharString index="327">
            82 574 rmoveto
            -57 -75 57 -499 93 499 return
          </CharString>
          <CharString index="328">
            42 237 callsubr
            return
          </CharString>
          <CharString index="329">
            317 callsubr
            -2 callgsubr
            return
          </CharString>
          <CharString index="330">
            -101 -249 hlineto
            -2 callgsubr
            return
          </CharString>
          <CharString index="331">
            13 vlineto
            88 -50 33 -103 vhcurveto
            -35 hlineto
            return
          </CharString>
          <CharString index="332">
            12 1 5 hhcurveto
            78 vlineto
            -58 -1 -18 return
          </CharString>
          <CharString index="333">
            -108 -51 -51 -91 hvcurveto
            return
          </CharString>
          <CharString index="334">
            vlineto
            38 19 29 61 vhcurveto
            return
          </CharString>
          <CharString index="335">
            0 -8 -21 -42 vvcurveto
            return
          </CharString>
          <CharString index="336">
            rmoveto
            -88 callsubr
            return
          </CharString>
          <CharString index="337">
            39 -17 vhcurveto
            -40 -14 return
          </CharString>
          <CharString index="338">
            rmoveto
            169 vlineto
            174 -182 rlineto
            -36 -11 -25 -22 -53 hhcurveto
            -69 -16 31 40 hvcurveto
            return
          </CharString>
          <CharString index="339">
            51 101 rmoveto
            -42 -229 rlineto
            52 hlineto
            24 42 55 102 46 vvcurveto
            25 -16 14 -27 vhcurveto
            return
          </CharString>
          <CharString index="340">
            vvcurveto
            237 callgsubr
          </CharString>
          <CharString index="341">
            197 -59 callgsubr
            return
          </CharString>
          <CharString index="342">
            hlineto
            38 callsubr
            22 242 callgsubr
            return
          </CharString>
          <CharString index="343">
            rmoveto
            227 136 -227 vlineto
            -36 -11 -27 -57 -57 -11 27 36 vhcurveto
            endchar
          </CharString>
          <CharString index="344">
            38 341 callsubr
            return
          </CharString>
          <CharString index="345">
            -87 47 -44 98 31 28 6 3 12 vhcurveto
            -73 return
          </CharString>
          <CharString index="346">
            -78 vlineto
            -78 -11 -35 -48 -73 vvcurveto
            -239 vlineto
            return
          </CharString>
          <CharString index="347">
            315 callsubr
            vlineto
            endchar
          </CharString>
          <CharString index="348">
            -64 hlineto
            -104 -42 -45 -82 hvcurveto
            return
          </CharString>
          <CharString index="349">
            108 hlineto
            108 113 return
          </CharString>
          <CharString index="350">
            299 callgsubr
            170 -134 rlineto
            return
          </CharString>
          <CharString index="351">
            12 7 -23 -37 hvcurveto
            -112 vlineto
            -36 -13 -27 -57 -21 -22 4 4 -16 vhcurveto
            return
          </CharString>
          <CharString index="352">
            -8 vhcurveto
            46 -15 -45 28 -79 hhcurveto
            return
          </CharString>
          <CharString index="353">
            287 callgsubr
            61 72 return
          </CharString>
          <CharString index="354">
            -50 105 33 24 6 3 13 vhcurveto
            return
          </CharString>
          <CharString index="355">
            29 -8 21 -16 15 vhcurveto
            return
          </CharString>
          <CharString index="356">
            56 hhcurveto
            130 61 51 return
          </CharString>
          <CharString index="357">
            -50 -40 -87 hvcurveto
            -8 vlineto
            return
          </CharString>
          <CharString index="358">
            347 rmoveto
            24 callgsubr
            return
          </CharString>
          <CharString index="359">
            -72 193 vlineto
            84 callgsubr
            return
          </CharString>
          <CharString index="360">
            -41 -213 rlineto
            42 hlineto
            21 36 49 94 43 vvcurveto
            26 -14 14 -27 vhcurveto
            return
          </CharString>
          <CharString index="361">
            154 callgsubr
            -39 -12 -22 -28 339 callgsubr
            return
          </CharString>
          <CharString index="362">
            vvcurveto
            -15 vlineto
            -46 17 -29 33 -16 vhcurveto
            -34 -17 -17 -30 -47 vvcurveto
            endchar
          </CharString>
          <CharString index="363">
            vlineto
            36 11 27 54 55 11 -27 -36 vhcurveto
            return
          </CharString>
          <CharString index="364">
            vlineto
            0 9 -22 -42 vvcurveto
            -151 vlineto
            -45 return
          </CharString>
          <CharString index="365">
            31 63 hvcurveto
            3 vlineto
            78 47 35 80 hvcurveto
            return
          </CharString>
          <CharString index="366">
            hhcurveto
            95 43 49 84 169 callgsubr
            83 return
          </CharString>
          <CharString index="367">
            182 callsubr
            -132 vlineto
            -91 return
          </CharString>
          <CharString index="368">
            434 rmoveto
            149 114 -149 vlineto
            return
          </CharString>
          <CharString index="369">
            -20 -20 3 5 -16 return
          </CharString>
          <CharString index="370">
            -119 -119 -51 return
          </CharString>
          <CharString index="371">
            72 rmoveto
            149 return
          </CharString>
          <CharString index="372">
            -56 -12 24 36 return
          </CharString>
          <CharString index="373">
            158 149 101 72 -486 -72 298 -81 -67 hlineto
            -103 -51 return
          </CharString>
          <CharString index="374">
            hhcurveto
            -111 -62 -51 -95 hvcurveto
            -218 310 callsubr
            99 2 vhcurveto
            return
          </CharString>
          <CharString index="375">
            -7 callsubr
            210 vlineto
            42 25 28 63 return
          </CharString>
          <CharString index="376">
            hhcurveto
            56 12 -23 -39 hvcurveto
            endchar
          </CharString>
          <CharString index="377">
            6 -16 -21 5 return
          </CharString>
          <CharString index="378">
            9 -18 vhcurveto
            endchar
          </CharString>
          <CharString index="379">
            494 98 callgsubr
            -39 -31 -7 -14 -24 hvcurveto
            return
          </CharString>
          <CharString index="380">
            -83 38 -51 100 2 vhcurveto
            23 79 hlineto
            -58 -7 callgsubr
            return
          </CharString>
          <CharString index="381">
            hlineto
            -61 callsubr
            return
          </CharString>
          <CharString index="382">
            vlineto
            1 7 0 7 8 vvcurveto
            305 callsubr
            return
          </CharString>
          <CharString index="383">
            338 callgsubr
            40 33 7 4 12 vhcurveto
            -76 vlineto
            endchar
          </CharString>
          <CharString index="384">
            328 callsubr
            -47 hhcurveto
            return
          </CharString>
          <CharString index="385">
            317 callgsubr
            1 vlineto
            78 return
          </CharString>
          <CharString index="386">
            -21 -36 -49 -95 -43 vvcurveto
            -26 14 -14 return
          </CharString>
          <CharString index="387">
            hlineto
            -104 262 callgsubr
            return
          </CharString>
          <CharString index="388">
            250 callsubr
            -87 return
          </CharString>
          <CharString index="389">
            94 hlineto
            60 20 -31 -46 hvcurveto
            return
          </CharString>
          <CharString index="390">
            -4 -12 -23 -5 -28 hhcurveto
            return
          </CharString>
          <CharString index="391">
            -3 -12 -1 -13 -14 vvcurveto
            return
          </CharString>
          <CharString index="392">
            vlineto
            35 14 21 53 vhcurveto
            return
          </CharString>
          <CharString index="393">
            349 callsubr
            173 return
          </CharString>
          <CharString index="394">
            hlineto
            228 callsubr
            return
          </CharString>
          <CharString index="395">
            104 43 47 82 vhcurveto
            return
          </CharString>
          <CharString index="396">
            vlineto
            36 16 25 55 return
          </CharString>
          <CharString index="397">
            422 vlineto
            5 15 return
          </CharString>
          <CharString index="398" raw="1">
            1ef70d06 0b  
          </CharString>
          <CharString index="399">
            11 25 0 vhcurveto
            return
          </CharString>
          <CharString index="400">
            208 502 rmoveto
            -108 -48 -43 -88 hvcurveto
            -161 vlineto
            return
          </CharString>
          <CharString index="401">
            vlineto
            -91 38 -56 124 vhcurveto
            75 vlineto
            -65 -12 31 36 hvcurveto
            return
          </CharString>
          <CharString index="402">
            352 2 callgsubr
            return
          </CharString>
          <CharString index="403">
            36 81 vvcurveto
            -91 138 rmoveto
            -41 callgsubr
            return
          </CharString>
          <CharString index="404">
            -1 7 hhcurveto
            95 return
          </CharString>
          <CharString index="405">
            0 8 hhcurveto
            31 106 callgsubr
            return
          </CharString>
          <CharString index="406">
            88 61 51 98 hvcurveto
            298 vlineto
            86 -53 44 -78 -48 return
          </CharString>
          <CharString index="407">
            -88 -38 35 70 hvcurveto
            57 -45 callsubr
            return
          </CharString>
          <CharString index="408">
            hlineto
            -52 -15 18 33 hvcurveto
            11 vlineto
            33 13 19 52 vhcurveto
            return
          </CharString>
          <CharString index="409">
            -150 323 655 rmoveto
            -357 -72 357 hlineto
            return
          </CharString>
          <CharString index="410">
            -153 40 366 rmoveto
            -78 176 78 vlineto
            endchar
          </CharString>
          <CharString index="411">
            69 vlineto
            79 1 46 37 81 vvcurveto
            return
          </CharString>
          <CharString index="412">
            84 callsubr
            -7 -5 callsubr
            return
          </CharString>
          <CharString index="413">
            -10 -58 314 callgsubr
            return
          </CharString>
          <CharString index="414">
            -72 77 -323 hlineto
            -86 47 -50 return
          </CharString>
          <CharString index="415">
            173 113 vlineto
            endchar
          </CharString>
          <CharString index="416">
            113 49 51 93 return
          </CharString>
          <CharString index="417">
            vlineto
            -83 38 -51 return
          </CharString>
          <CharString index="418">
            -95 -54 -40 -100 -101 54 -42 95 49 41 9 0 return
          </CharString>
          <CharString index="419">
            vlineto
            323 callgsubr
            return
          </CharString>
          <CharString index="420">
            hvcurveto
            -64 82 60 vlineto
            49 26 29 75 37 34 -7 return
          </CharString>
          <CharString index="421" raw="1">
            3f670a0b   
          </CharString>
          <CharString index="422">
            337 callsubr
            92 return
          </CharString>
          <CharString index="423">
            hhcurveto
            -68 -17 31 40 hvcurveto
            return
          </CharString>
          <CharString index="424">
            -101 -249 vlineto
            return
          </CharString>
          <CharString index="425">
            6 19 23 -14 callgsubr
            return
          </CharString>
          <CharString index="426">
            -55 -27 -51 -44 -43 18 -47 47 hvcurveto
            10 -42 return
          </CharString>
          <CharString index="427">
            22 29 29 -13 46 callgsubr
            -29 return
          </CharString>
          <CharString index="428">
            10 10 -2 0 vhcurveto
            75 vlineto
            0 -18 1 -14 return
          </CharString>
          <CharString index="429">
            -2 -16 2 -15 hhcurveto
            -112 -46 -48 -87 hvcurveto
            return
          </CharString>
          <CharString index="430">
            -15 -29 -69 -68 -15 30 39 vhcurveto
            143 vlineto
            return
          </CharString>
          <CharString index="431">
            168 callsubr
            -106 -51 -56 -87 hvcurveto
            return
          </CharString>
          <CharString index="432">
            hhcurveto
            104 43 46 83 hvcurveto
            173 113 vlineto
            return
          </CharString>
          <CharString index="433">
            vlineto
            89 -34 50 -99 -98 -38 -52 -89 -19 5 return
          </CharString>
          <CharString index="434">
            hhcurveto
            -183 -126 -45 -157 hvcurveto
            endchar
          </CharString>
          <CharString index="435">
            vhcurveto
            77 vlineto
            -8 -34 -37 -7 return
          </CharString>
          <CharString index="436">
            hhcurveto
            108 59 51 95 hvcurveto
            return
          </CharString>
          <CharString index="437">
            83 412 hlineto
            0 28 10 return
          </CharString>
          <CharString index="438">
            -14 -78 vhcurveto
            -22 -127 hlineto
            return
          </CharString>
          <CharString index="439">
            rmoveto
            -48 -20 -33 -60 vhcurveto
            -94 return
          </CharString>
          <CharString index="440">
            355 583 rmoveto
            return
          </CharString>
          <CharString index="441">
            50 10 -21 -35 hvcurveto
            return
          </CharString>
          <CharString index="442">
            -1 callgsubr
            -25 return
          </CharString>
          <CharString index="443">
            -110 hlineto
            -132 return
          </CharString>
          <CharString index="444">
            -583 85 583 return
          </CharString>
          <CharString index="445">
            rmoveto
            0 -14 1 -7 return
          </CharString>
          <CharString index="446">
            59 44 10 9 return
          </CharString>
          <CharString index="447">
            -84 callsubr
            -92 hlineto
            0 return
          </CharString>
          <CharString index="448">
            304 callgsubr
            92 72 return
          </CharString>
          <CharString index="449">
            vlineto
            39 16 25 62 vhcurveto
            154 160 return
          </CharString>
          <CharString index="450">
            -38 53 -109 -22 -35 -3 -6 -17 vhcurveto
            return
          </CharString>
          <CharString index="451">
            -3 -5 -15 vhcurveto
            -422 -84 73 vlineto
            -3 return
          </CharString>
          <CharString index="452">
            rmoveto
            -107 -48 -44 -91 hvcurveto
            -226 vlineto
            -67 return
          </CharString>
          <CharString index="453">
            -65 29 -45 56 -19 vhcurveto
            -73 -23 -20 -79 return
          </CharString>
          <CharString index="454">
            vvcurveto
            36 14 28 57 58 14 -27 -36 vhcurveto
            return
          </CharString>
          <CharString index="455">
            27 35 hvcurveto
            331 137 vlineto
            endchar
          </CharString>
          <CharString index="456">
            43 46 83 vhcurveto
            return
          </CharString>
        <CharString name=".notdef">
          349 172 hmoveto
          409 701 -409 hlineto
          65 -61 rmoveto
          279 -579 -279 hlineto
          endchar
        </CharString>
        <CharString name="A">
          47 347 hmoveto
          91 -45 callgsubr
          -17 80 146 callgsubr
        </CharString>
        <CharString name="AE">
          273 354 260 rmoveto
          -147 hlineto
          147 352 rlineto
          -612 vmoveto
          304 81 -216 221 188 80 -188 215 216 80 -359 hlineto
          -293 -677 rlineto
          93 hlineto
          75 180 rlineto
          180 hlineto
          endchar
        </CharString>
        <CharString name="Aacute">
          47 347 hmoveto
          91 -45 callgsubr
          -74 647 rmoveto
          -40 -109 rlineto
          55 hlineto
          63 109 rlineto
          -21 -567 146 callgsubr
        </CharString>
        <CharString name="Abreve">
          47 347 hmoveto
          91 -45 callgsubr
          -17 80 96 callgsubr
          55 235 30 callsubr
          endchar
        </CharString>
        <CharString name="Acircumflex">
          47 347 hmoveto
          91 -45 callgsubr
          -17 80 96 callgsubr
          41 126 -38 callgsubr
        </CharString>
        <CharString name="Adieresis">
          47 153 730 -91 callsubr
          50 -730 rmoveto
          91 -45 callgsubr
          -17 80 146 callgsubr
        </CharString>
        <CharString name="Agrave">
          47 347 hmoveto
          91 -45 callgsubr
          -180 647 rmoveto
          63 -109 rlineto
          55 hlineto
          -40 109 rlineto
          85 -567 146 callgsubr
        </CharString>
        <CharString name="Amacron">
          47 347 hmoveto
          91 -45 callgsubr
          -203 620 rmoveto
          -55 234 55 vlineto
          -48 -540 146 callgsubr
        </CharString>
        <CharString name="Aogonek">
          47 396 hmoveto
          -18 callgsubr
          1 -45 callgsubr
          37 -180 rlineto
          -54 260 146 callgsubr
        </CharString>
        <CharString name="Aring">
          47 347 hmoveto
          91 -45 callgsubr
          -85 559 rmoveto
          -20 -13 13 21 19 13 14 20 20 13 -14 -19 -21 -13 -13 -20 hvcurveto
          -41 vmoveto
          50 26 34 41 41 -26 33 -50 -49 -27 -33 -41 -41 27 -34 49 hvcurveto
          68 -438 146 callgsubr
        </CharString>
        <CharString name="Atilde">
          47 347 hmoveto
          91 -45 callgsubr
          -17 80 96 callgsubr
          73 228 -64 callsubr
        </CharString>
        <CharString name="B">
          70 248 300 rmoveto
          58 25 -29 -50 hvcurveto
          -63 vlineto
          -51 -25 -28 -58 vhcurveto
          -94 221 hlineto
          88 298 rmoveto
          58 25 -28 -51 hvcurveto
          -58 vlineto
          -51 -25 -28 -58 vhcurveto
          -88 216 hlineto
          -92 -598 rmoveto
          196 hlineto
          109 55 55 99 hvcurveto
          63 vlineto
          61 -23 46 -56 18 vhcurveto
          52 19 21 46 58 vvcurveto
          59 vlineto
          98 -55 55 -109 vhcurveto
          -190 hlineto
          endchar
        </CharString>
        <CharString name="C">
          -5 52 144 rmoveto
          -93 59 -56 132 47 47 7 9 28 vhcurveto
          -3 callsubr
          endchar
        </CharString>
        <CharString name="CR">
          -404 endchar
        </CharString>
        <CharString name="Cacute">
          -5 52 144 rmoveto
          -93 59 -56 132 47 47 7 9 28 vhcurveto
          -3 callsubr
          192 294 -58 callsubr
        </CharString>
        <CharString name="Ccaron">
          -5 52 144 rmoveto
          -93 59 -56 132 47 47 7 9 28 vhcurveto
          -3 callsubr
          216 294 -66 callsubr
        </CharString>
        <CharString name="Ccedilla">
          -5 52 144 rmoveto
          -83 47 -53 103 -11 vhcurveto
          -14 -68 51 callgsubr
          8 35 rlineto
          43 47 7 9 28 hvcurveto
          -3 callsubr
          endchar
        </CharString>
        <CharString name="D">
          69 6 callgsubr
          83 callgsubr
          520 282 callsubr
          endchar
        </CharString>
        <CharString name="Dcaron">
          69 328 161 332 callsubr
          520 282 callsubr
          -266 154 rmoveto
          -677 198 vlineto
          113 47 63 92 hvcurveto
          371 vlineto
          93 -55 58 -108 vhcurveto
          8 150 -66 callsubr
        </CharString>
        <CharString name="Dcroat">
          71 66 677 rmoveto
          -301 -61 -78 61 -298 83 callgsubr
          218 90 78 -90 224 282 callsubr
          endchar
        </CharString>
        <CharString name="E">
          -35 callsubr
          endchar
        </CharString>
        <CharString name="Eacute">
          -35 callsubr
          -141 150 -58 callsubr
        </CharString>
        <CharString name="Ecaron">
          -35 callsubr
          -117 150 -66 callsubr
        </CharString>
        <CharString name="Ecircumflex">
          -35 callsubr
          -122 41 -38 callgsubr
        </CharString>
        <CharString name="Edieresis">
          -35 callsubr
          -224 53 -91 callsubr
          endchar
        </CharString>
        <CharString name="Edotaccent">
          -35 callsubr
          -150 70 33 callsubr
        </CharString>
        <CharString name="Egrave">
          -35 callsubr
          -243 150 32 callsubr
        </CharString>
        <CharString name="Emacron">
          -35 callsubr
          -272 123 108 callsubr
        </CharString>
        <CharString name="Eogonek">
          141 callgsubr
          267 vlineto
          -18 callgsubr
          81 -216 221 188 80 -188 215 216 80 vlineto
          endchar
        </CharString>
        <CharString name="Eth">
          71 66 677 rmoveto
          -305 -70 -78 70 -294 83 callgsubr
          214 95 78 -95 228 282 callsubr
          endchar
        </CharString>
        <CharString name="Euro">
          20 68 144 rmoveto
          -93 59 -56 132 47 47 7 9 28 vhcurveto
          84 vlineto
          -10 -31 -45 -7 -44 hhcurveto
          -78 -22 28 44 hvcurveto
          94 140 64 -140 70 140 65 -140 84 vlineto
          44 22 28 78 43 43 -8 -9 32 vhcurveto
          85 vlineto
          8 -29 -43 7 -47 hhcurveto
          -132 -60 -57 -92 hvcurveto
          -90 -52 -65 52 -70 -52 -64 52 vlineto
          endchar
        </CharString>
        <CharString name="F">
          -25 6 callgsubr
          93 284 195 82 -195 230 206 81 vlineto
          endchar
        </CharString>
        <CharString name="G">
          -5 callgsubr
          endchar
        </CharString>
        <CharString name="Gbreve">
          -5 callgsubr
          238 299 30 callsubr
          endchar
        </CharString>
        <CharString name="H">
          101 349 677 rmoveto
          -303 -194 303 -93 -677 93 291 194 -291 93 677 vlineto
          endchar
        </CharString>
        <CharString name="I">
          -186 6 callgsubr
          93 677 vlineto
          endchar
        </CharString>
        <CharString name="Iacute">
          -186 6 callgsubr
          93 677 vlineto
          -36 150 -58 callsubr
        </CharString>
        <CharString name="Icircumflex">
          -186 6 callgsubr
          93 677 vlineto
          -6 41 -38 callgsubr
        </CharString>
        <CharString name="Idieresis">
          -186 6 callgsubr
          93 677 vlineto
          -119 53 -91 callsubr
          endchar
        </CharString>
        <CharString name="Idotaccent">
          -186 6 callgsubr
          93 677 vlineto
          -48 70 33 callsubr
        </CharString>
        <CharString name="Igrave">
          -186 6 callgsubr
          93 677 vlineto
          -134 150 32 callsubr
        </CharString>
        <CharString name="Imacron">
          -186 6 callgsubr
          93 677 vlineto
          -161 123 108 callsubr
        </CharString>
        <CharString name="Iogonek">
          -186 6 callgsubr
          53 vlineto
          -18 callgsubr
          -1 677 hlineto
          endchar
        </CharString>
        <CharString name="J">
          -184 65 677 rmoveto
          -478 vlineto
          -98 -14 -63 -24 -82 vhcurveto
          -30 -105 rlineto
          96 hlineto
          31 104 rlineto
          20 71 13 62 112 vvcurveto
          477 vlineto
          endchar
        </CharString>
        <CharString name="K">
          138 callsubr
          endchar
        </CharString>
        <CharString name="L">
          175 callsubr
          endchar
        </CharString>
        <CharString name="Lacute">
          175 callsubr
          -36 150 -58 callsubr
        </CharString>
        <CharString name="Lcaron">
          -45 220 726 23 callsubr
          -191 -49 rmoveto
          -677 337 callgsubr
          598 vlineto
          endchar
        </CharString>
        <CharString name="Lslash">
          -44 66 677 rmoveto
          -335 vlineto
          -54 -26 rlineto
          -68 vlineto
          54 26 rlineto
          -274 337 callgsubr
          239 vlineto
          95 46 rlineto
          69 vlineto
          -95 -46 rlineto
          290 vlineto
          endchar
        </CharString>
        <CharString name="M">
          217 455 677 rmoveto
          -145 -403 -145 403 rlineto
          -103 -677 88 325 hlineto
          106 -10 94 0 vhcurveto
          127 -347 rlineto
          86 hlineto
          127 347 rlineto
          0 -10 -86 -115 vvcurveto
          -324 89 677 vlineto
          endchar
        </CharString>
        <CharString name="N">
          -55 callsubr
          endchar
        </CharString>
        <CharString name="NULL">
          -404 endchar
        </CharString>
        <CharString name="Nacute">
          -55 callsubr
          -183 150 -58 callsubr
        </CharString>
        <CharString name="Ncaron">
          -55 callsubr
          -156 150 -66 callsubr
        </CharString>
        <CharString name="Ntilde">
          -55 callsubr
          -113 143 -64 callsubr
        </CharString>
        <CharString name="O">
          -80 callsubr
          endchar
        </CharString>
        <CharString name="OE">
          277 245 80 rmoveto
          -61 -20 33 48 hvcurveto
          362 vlineto
          46 20 31 61 vhcurveto
          100 -520 hlineto
          -113 -80 rmoveto
          421 81 -216 221 188 80 -188 215 216 80 -417 hlineto
          -108 -56 -58 -93 hvcurveto
          -371 vlineto
          -92 48 -63 112 vhcurveto
          endchar
        </CharString>
        <CharString name="Oacute">
          -80 callsubr
          -73 307 -58 callsubr
        </CharString>
        <CharString name="Ocircumflex">
          61 321 157 rmoveto
          -50 -25 -33 -64 -63 -25 34 49 vhcurveto
          363 vlineto
          50 25 34 63 64 25 -34 -50 vhcurveto
          -269 -366 rmoveto
          163 callgsubr
          58 70 94 vhcurveto
          369 vlineto
          95 -58 69 -123 -123 -57 -69 -95 vhcurveto
          218 195 -38 callgsubr
        </CharString>
        <CharString name="Odieresis">
          -80 callsubr
          -161 210 -91 callsubr
          endchar
        </CharString>
        <CharString name="Ograve">
          -80 callsubr
          -184 307 32 callsubr
        </CharString>
        <CharString name="Ohungarumlaut">
          -80 callsubr
          -27 307 53 callgsubr
        </CharString>
        <CharString name="Omacron">
          -80 callsubr
          -204 280 108 callsubr
        </CharString>
        <CharString name="Oslash">
          61 52 154 rmoveto
          -36 8 -32 17 -26 vhcurveto
          -27 -60 rlineto
          64 hlineto
          7 17 rlineto
          -17 28 37 -10 46 hhcurveto
          123 58 70 94 hvcurveto
          369 vlineto
          36 -8 32 -17 26 vhcurveto
          27 60 rlineto
          -63 hlineto
          -8 -17 rlineto
          17 -28 -37 10 -47 hhcurveto
          -123 -57 -69 -95 hvcurveto
          92 -3 rmoveto
          50 25 34 63 37 23 -11 -19 14 vhcurveto
          -162 -363 rlineto
          88 -137 rmoveto
          -35 -24 11 18 -13 hvcurveto
          161 363 rlineto
          -309 vlineto
          -50 -25 -33 -64 vhcurveto
          endchar
        </CharString>
        <CharString name="Otilde">
          -80 callsubr
          -17 300 -64 callsubr
        </CharString>
        <CharString name="P">
          43 6 callgsubr
          93 223 88 vlineto
          108 57 58 93 hvcurveto
          152 vlineto
          93 -57 58 -108 vhcurveto
          73 -295 rmoveto
          -50 -23 -29 -58 vhcurveto
          -80 294 80 hlineto
          58 23 -29 -50 hvcurveto
          endchar
        </CharString>
        <CharString name="Q">
          61 321 157 rmoveto
          -50 -25 -33 -64 -63 -25 34 49 vhcurveto
          363 vlineto
          50 25 34 63 64 25 -34 -50 vhcurveto
          -269 -366 rmoveto
          -94 57 -70 123 12 12 1 1 11 vhcurveto
          82 -89 rlineto
          112 hlineto
          -111 119 rlineto
          43 29 20 47 56 vvcurveto
          369 vlineto
          95 -58 69 -123 -123 -57 -69 -95 vhcurveto
          endchar
        </CharString>
        <CharString name="R">
          59 -32 callgsubr
          endchar
        </CharString>
        <CharString name="Racute">
          59 6 callgsubr
          92 265 78 vlineto
          97 -265 rlineto
          101 hlineto
          -107 277 rlineto
          59 21 26 51 71 vvcurveto
          106 vlineto
          93 -57 58 -108 vhcurveto
          -4 150 rmoveto
          -40 -109 rlineto
          55 hlineto
          63 109 rlineto
          -1 -407 rmoveto
          -51 -22 -27 -59 vhcurveto
          -81 255 81 hlineto
          57 24 -26 -50 hvcurveto
          endchar
        </CharString>
        <CharString name="Rcaron">
          59 -32 callgsubr
          -55 306 -66 callsubr
        </CharString>
        <CharString name="S">
          -84 callgsubr
          endchar
        </CharString>
        <CharString name="Sacute">
          -84 callgsubr
          188 293 -58 callsubr
        </CharString>
        <CharString name="Scaron">
          -84 callgsubr
          214 293 -66 callsubr
        </CharString>
        <CharString name="T">
          102 callgsubr
          endchar
        </CharString>
        <CharString name="Tcaron">
          102 callgsubr
          -140 150 -66 callsubr
        </CharString>
        <CharString name="Thorn">
          32 242 481 rmoveto
          59 22 -29 -49 hvcurveto
          -128 vlineto
          -50 -22 -27 -59 vhcurveto
          -80 283 hlineto
          -90 196 rmoveto
          -677 90 117 86 vlineto
          108 57 58 93 hvcurveto
          141 vlineto
          93 -57 59 -108 vhcurveto
          -86 116 hlineto
          endchar
        </CharString>
        <CharString name="U">
          70 324 677 -57 callgsubr
          endchar
        </CharString>
        <CharString name="Uacute">
          70 324 677 -57 callgsubr
          -167 150 -58 callsubr
        </CharString>
        <CharString name="Ucircumflex">
          70 324 677 -57 callgsubr
          -143 41 -38 callgsubr
        </CharString>
        <CharString name="Udieresis">
          70 324 677 -57 callgsubr
          -252 53 -91 callsubr
          endchar
        </CharString>
        <CharString name="Ugrave">
          70 324 677 -57 callgsubr
          -270 150 32 callsubr
        </CharString>
        <CharString name="Uhungarumlaut">
          70 293 827 rmoveto
          129 callsubr
          -167 hmoveto
          129 callsubr
          54 -150 -57 callgsubr
          endchar
        </CharString>
        <CharString name="Umacron">
          70 324 677 -57 callgsubr
          -296 123 108 callsubr
        </CharString>
        <CharString name="Uogonek">
          70 324 677 rmoveto
          -520 vlineto
          -50 -24 -33 -63 -64 -24 34 49 vhcurveto
          520 -92 -523 vlineto
          -94 57 -70 123 12 12 1 1 10 vhcurveto
          -24 -26 -17 -33 -34 vvcurveto
          -46 29 -26 56 vhcurveto
          17 54 -12 hlineto
          -23 -12 10 26 33 18 33 26 24 hvcurveto
          59 27 28 54 66 vvcurveto
          523 vlineto
          endchar
        </CharString>
        <CharString name="Uring">
          70 324 677 -57 callgsubr
          -178 21 3 callgsubr
        </CharString>
        <CharString name="V">
          33 330 677 rmoveto
          -63 -322 -17 -90 -19 -127 -12 -53 rlinecurve
          -11 53 -20 126 -17 91 -66 322 rcurveline
          -94 hlineto
          143 -677 rlineto
          130 hlineto
          142 677 rlineto
          endchar
        </CharString>
        <CharString name="W">
          201 504 677 rmoveto
          -57 -354 rlineto
          -12 -75 -10 -104 0 vvcurveto
          0 -14 104 -10 75 vhcurveto
          -54 354 rlineto
          -88 hlineto
          -54 -354 rlineto
          -14 -90 -11 -92 0 vvcurveto
          0 -8 93 -14 89 vhcurveto
          -56 354 rlineto
          -85 hlineto
          104 -677 rlineto
          102 hlineto
          53 319 rlineto
          18 107 9 110 0 vvcurveto
          0 10 -108 18 -109 vhcurveto
          53 -319 rlineto
          98 hlineto
          106 677 rlineto
          endchar
        </CharString>
        <CharString name="X">
          8 302 677 rmoveto
          -95 -238 -96 238 rlineto
          -100 hlineto
          146 -339 -146 -338 rlineto
          100 hlineto
          96 237 94 -237 rlineto
          101 hlineto
          -148 338 148 339 rlineto
          endchar
        </CharString>
        <CharString name="Y">
          107 callgsubr
          endchar
        </CharString>
        <CharString name="Yacute">
          107 callgsubr
          -201 150 -58 callsubr
        </CharString>
        <CharString name="Ydieresis">
          25 140 730 -91 callsubr
          49 -53 rmoveto
          -58 -161 -25 -78 -18 -56 -16 -56 rlinecurve
          -17 56 -16 56 -27 78 -58 161 rcurveline
          -95 hlineto
          165 -453 rlineto
          -224 93 224 vlineto
          165 453 rlineto
          endchar
        </CharString>
        <CharString name="Z">
          41 callsubr
          endchar
        </CharString>
        <CharString name="Zacute">
          41 callsubr
          -159 150 -58 callsubr
        </CharString>
        <CharString name="Zcaron">
          41 callsubr
          -131 150 -66 callsubr
        </CharString>
        <CharString name="Zdotaccent">
          41 callsubr
          -169 70 33 callsubr
        </CharString>
        <CharString name="a">
          -102 callgsubr
          endchar
        </CharString>
        <CharString name="aacute">
          -102 callgsubr
          -64 458 -58 callsubr
        </CharString>
        <CharString name="abreve">
          -102 callgsubr
          -15 458 30 callsubr
          endchar
        </CharString>
        <CharString name="acircumflex">
          -102 callgsubr
          -30 349 -38 callgsubr
        </CharString>
        <CharString name="acute">
          -54 156 727 -58 callsubr
        </CharString>
        <CharString name="adieresis">
          -102 callgsubr
          -144 361 -91 callsubr
          endchar
        </CharString>
        <CharString name="ae">
          247 193 579 rmoveto
          -58 -54 -11 -8 -25 hvcurveto
          -84 vlineto
          9 26 53 11 53 hhcurveto
          76 17 -26 -41 hvcurveto
          1 -79 -132 -38 rlineto
          -84 -25 -36 -44 -75 vvcurveto
          -33 vlineto
          -90 48 -49 97 63 56 16 26 34 vhcurveto
          -28 30 49 -15 69 hhcurveto
          63 35 8 8 30 hvcurveto
          84 vlineto
          -8 -26 -44 -10 -51 hhcurveto
          -78 -34 25 54 hvcurveto
          89 249 182 vlineto
          91 -48 66 -119 -59 -43 -21 -25 -25 vhcurveto
          26 -27 -43 15 -63 hhcurveto
          90 -481 rmoveto
          -18 -23 -35 -11 -37 hhcurveto
          -48 -21 21 45 hvcurveto
          30 vlineto
          42 13 21 54 15 vhcurveto
          97 27 rlineto
          250 50 rmoveto
          -163 107 hlineto
          47 26 32 57 57 23 -32 -47 vhcurveto
          endchar
        </CharString>
        <CharString name="agrave">
          -102 callgsubr
          -164 458 32 callsubr
        </CharString>
        <CharString name="amacron">
          -102 callgsubr
          -188 431 108 callsubr
        </CharString>
        <CharString name="ampersand">
          66 235 73 rmoveto
          -63 -27 35 49 hvcurveto
          70 vlineto
          49 22 33 59 vhcurveto
          97 -152 hlineto
          -50 -25 -34 -63 vhcurveto
          -181 399 rmoveto
          -61 27 -42 48 -18 vhcurveto
          -51 -18 -25 -41 -61 vvcurveto
          -75 vlineto
          -95 59 -69 123 123 55 69 95 vhcurveto
          153 44 80 -44 61 -90 -61 -99 vlineto
          -59 -19 33 51 hvcurveto
          48 vlineto
          44 22 32 87 50 42 -7 -12 32 vhcurveto
          88 vlineto
          9 -28 -44 8 -54 hhcurveto
          -139 -60 -63 -91 hvcurveto
          endchar
        </CharString>
        <CharString name="aogonek">
          24 56 476 rmoveto
          9 26 54 11 52 hhcurveto
          75 19 -24 -46 hvcurveto
          -78 vlineto
          -132 -37 rlineto
          -85 -24 -37 -44 -75 vvcurveto
          -33 vlineto
          -90 41 -48 97 64 29 21 23 24 vhcurveto
          -41 46 vlineto
          -18 callgsubr
          1 425 hlineto
          98 -48 56 -129 -58 -52 -9 -9 -28 vhcurveto
          226 -461 rmoveto
          -17 -22 -34 -14 -38 hhcurveto
          -51 -18 23 43 hvcurveto
          30 vlineto
          42 13 21 54 15 vhcurveto
          96 26 rlineto
          endchar
        </CharString>
        <CharString name="apostrophemod">
          187 callgsubr
        </CharString>
        <CharString name="approxequal">
          103 387 315 rmoveto
          10 -58 -39 -9 77 callgsubr
          24 98 vvcurveto
          20 -4 17 0 vhcurveto
          -78 172 rmoveto
          10 -58 -39 -9 77 callgsubr
          24 98 vvcurveto
          20 -4 17 0 vhcurveto
          endchar
        </CharString>
        <CharString name="aring">
          -102 callgsubr
          -73 329 3 callgsubr
        </CharString>
        <CharString name="asciicircum">
          -53 255 385 rmoveto
          89 hlineto
          -114 298 rlineto
          -113 hlineto
          -115 -298 rlineto
          90 hlineto
          82 245 rlineto
          endchar
        </CharString>
        <CharString name="asciitilde">
          76 373 407 rmoveto
          10 -57 -39 -10 77 callgsubr
          25 97 vvcurveto
          20 -4 17 0 vhcurveto
          endchar
        </CharString>
        <CharString name="asterisk">
          107 215 799 rmoveto
          -98 vlineto
          -24 3 -19 5 -15 vhcurveto
          -13 9 -17 9 -23 8 -93 30 rcurveline
          -25 -79 92 -30 rlineto
          -8 24 20 -2 16 hhcurveto
          -13 -10 -14 -13 -15 -21 -57 -78 rcurveline
          66 -49 57 79 15 20 8 18 5 14 rlinecurve
          5 -14 9 -18 15 -20 57 -79 rcurveline
          67 49 -58 79 -15 20 -14 14 -12 9 rlinecurve
          16 19 2 8 24 hvcurveto
          93 31 -26 78 -93 -31 -23 -8 -17 -8 -13 -9 rlinecurve
          5 14 3 19 25 vvcurveto
          98 vlineto
          endchar
        </CharString>
        <CharString name="at">
          469 441 -120 rmoveto
          88 74 -88 hlineto
          -238 -54 125 198 197 52 127 240 241 51 -118 -199 -149 -33 -42 -55 -48 -22 21 54 hvcurveto
          227 vlineto
          77 -41 45 -97 -46 -45 -9 -7 -30 vhcurveto
          -67 vlineto
          10 42 34 8 45 hhcurveto
          53 11 -24 -35 hvcurveto
          -57 vlineto
          -102 -33 rlineto
          -66 -22 -39 -31 -70 vvcurveto
          -19 vlineto
          -72 41 -41 78 60 34 16 11 16 vhcurveto
          -34 21 40 -19 56 hhcurveto
          107 65 68 194 243 -85 147 -286 -281 -91 -156 -241 -242 87 -155 285 hvcurveto
          60 254 rmoveto
          0 -29 -22 -46 -37 -19 13 36 vhcurveto
          20 vlineto
          42 20 10 37 13 vhcurveto
          74 22 rlineto
          endchar
        </CharString>
        <CharString name="atilde">
          -102 callgsubr
          1 451 -64 callsubr
        </CharString>
        <CharString name="b">
          47 62 727 rmoveto
          -727 187 vlineto
          88 62 49 99 hvcurveto
          299 vlineto
          86 -53 44 -78 -47 -44 -13 -9 -23 vhcurveto
          172 vlineto
          152 -569 rmoveto
          -51 -29 -23 -50 vhcurveto
          -72 387 hlineto
          10 26 31 11 32 hhcurveto
          39 23 -19 -42 hvcurveto
          endchar
        </CharString>
        <CharString name="backslash">
          13 34 808 rmoveto
          270 -954 rlineto
          84 hlineto
          -270 954 rlineto
          endchar
        </CharString>
        <CharString name="bar">
          -192 72 824 rmoveto
          -985 67 985 vlineto
          endchar
        </CharString>
        <CharString name="braceleft">
          -37 216 663 rmoveto
          36 18 23 52 vhcurveto
          23 79 -28 hlineto
          -94 -52 -55 -86 hvcurveto
          -225 vlineto
          -42 -26 -26 -48 vhcurveto
          -4 -78 4 hlineto
          48 26 -26 -42 hvcurveto
          -225 vlineto
          -86 52 -55 94 vhcurveto
          28 78 -23 hlineto
          -52 -18 24 36 hvcurveto
          205 vlineto
          76 -18 44 -70 10 vhcurveto
          70 11 18 48 75 vvcurveto
          endchar
        </CharString>
        <CharString name="braceright">
          -38 304 367 rmoveto
          -48 -26 26 42 hvcurveto
          225 vlineto
          86 -52 55 -94 vhcurveto
          -28 -79 23 hlineto
          52 18 -23 -36 hvcurveto
          -201 vlineto
          -75 18 -48 70 -11 vhcurveto
          -70 -10 -18 -44 -76 vvcurveto
          -205 vlineto
          -36 -18 -24 -52 vhcurveto
          -23 -78 28 hlineto
          94 52 55 86 hvcurveto
          225 vlineto
          42 26 26 48 vhcurveto
          3 78 hlineto
          endchar
        </CharString>
        <CharString name="bracketleft">
          -87 83 808 rmoveto
          -954 200 72 -123 810 123 72 vlineto
          endchar
        </CharString>
        <CharString name="bracketright">
          -87 34 808 rmoveto
          -72 122 -810 -122 -72 199 954 vlineto
          endchar
        </CharString>
        <CharString name="breve">
          -54 230 727 30 callsubr
          endchar
        </CharString>
        <CharString name="brokenbar">
          -192 72 824 rmoveto
          -381 67 381 vlineto
          -67 -604 rmoveto
          -381 67 381 vlineto
          endchar
        </CharString>
        <CharString name="bullet">
          -139 132 249 rmoveto
          59 20 34 46 45 -20 34 -59 -61 -19 -34 -45 -46 19 -34 61 hvcurveto
          endchar
        </CharString>
        <CharString name="c">
          -32 52 146 rmoveto
          -98 54 -53 122 52 32 7 7 28 vhcurveto
          -3 callgsubr
          endchar
        </CharString>
        <CharString name="cacute">
          -32 52 146 rmoveto
          -98 54 -53 122 52 32 7 7 28 vhcurveto
          -3 callgsubr
          186 299 -58 callsubr
        </CharString>
        <CharString name="caron">
          -54 212 727 -66 callsubr
        </CharString>
        <CharString name="ccaron">
          -32 52 146 rmoveto
          -98 54 -53 122 52 32 7 7 28 vhcurveto
          -3 callgsubr
          208 299 -66 callsubr
        </CharString>
        <CharString name="ccedilla">
          -32 52 146 rmoveto
          -86 42 -51 92 -12 vhcurveto
          -14 -68 51 callgsubr
          8 35 rlineto
          49 32 7 7 28 hvcurveto
          -3 callgsubr
          endchar
        </CharString>
        <CharString name="cedilla">
          -54 146 6 rmoveto
          -16 -77 51 callgsubr
          10 46 rlineto
          endchar
        </CharString>
        <CharString name="cent">
          -10 189 654 rmoveto
          -78 vlineto
          -90 -12 -40 -52 -84 vvcurveto
          -282 vlineto
          -84 40 -51 88 -13 vhcurveto
          -73 85 71 vlineto
          31 3 23 5 21 5 rrcurveto
          86 vlineto
          -8 -24 -36 -7 -41 hhcurveto
          -74 -20 23 48 hvcurveto
          272 vlineto
          48 20 24 74 39 37 -7 -8 24 vhcurveto
          86 vlineto
          -19 5 -23 5 -30 2 rrcurveto
          76 vlineto
          endchar
        </CharString>
        <CharString name="circumflex">
          -54 212 618 -38 callgsubr
        </CharString>
        <CharString name="colon">
          -187 88 343 rmoveto
          40 14 22 33 32 -14 22 -40 -41 -14 -22 -32 -33 14 -22 41 hvcurveto
          -350 vmoveto
          22 callgsubr
        </CharString>
        <CharString name="comma">
          -239 232 callsubr
          endchar
        </CharString>
        <CharString name="copyright">
          288 347 hmoveto
          239 63 140 187 192 -53 136 -249 -245 -58 -139 -189 -190 60 -137 243 hvcurveto
          -121 272 rmoveto
          -77 34 -46 99 33 29 6 2 13 vhcurveto
          65 vlineto
          -7 -27 -17 -2 -31 hhcurveto
          -59 -4 25 35 hvcurveto
          110 vlineto
          34 4 26 59 31 17 -2 -7 27 vhcurveto
          65 vlineto
          3 -13 -29 5 -33 hhcurveto
          -99 -34 -47 -76 hvcurveto
          121 -316 rmoveto
          -206 -25 107 152 151 23 109 208 209 20 -107 -153 -149 -28 -110 -201 hvcurveto
          endchar
        </CharString>
        <CharString name="currency">
          56 311 296 rmoveto
          -51 -17 -28 -63 -62 -17 29 50 vhcurveto
          85 vlineto
          51 17 29 62 63 17 -29 -51 vhcurveto
          64 -267 rmoveto
          56 56 -46 45 rlineto
          10 22 5 27 30 vvcurveto
          89 vlineto
          30 -5 27 -10 23 vhcurveto
          46 45 -56 56 -44 -44 rlineto
          14 -25 -33 7 -42 hhcurveto
          -42 -32 -7 -13 -26 hvcurveto
          -43 43 -56 -56 45 -45 rlineto
          -10 -22 -5 -28 -30 vvcurveto
          -89 vlineto
          -30 5 -26 10 -23 vhcurveto
          -46 -45 56 -56 44 43 rlineto
          -14 25 33 -7 42 hhcurveto
          42 33 7 14 25 hvcurveto
          endchar
        </CharString>
        <CharString name="d">
          47 75 callsubr
          endchar
        </CharString>
        <CharString name="dagger">
          -41 140 793 rmoveto
          -68 7 -76 0 vhcurveto
          0 -46 6 -61 vhcurveto
          -72 vlineto
          61 46 7 0 hvcurveto
          0 -7 -76 -80 vvcurveto
          -463 84 463 vlineto
          80 -6 76 0 vhcurveto
          0 49 -7 57 vhcurveto
          72 vlineto
          -57 -49 -6 0 hvcurveto
          0 6 76 68 vvcurveto
          endchar
        </CharString>
        <CharString name="daggerdbl">
          -41 140 793 rmoveto
          -68 6 -76 0 vhcurveto
          0 -45 6 -61 vhcurveto
          -72 vlineto
          61 45 7 0 hvcurveto
          -2 -114 0 -186 2 -116 rrcurveto
          0 -45 7 -61 vhcurveto
          -73 vlineto
          61 45 7 0 hvcurveto
          0 -6 -54 -90 vvcurveto
          84 hlineto
          90 -7 54 0 vhcurveto
          0 46 -7 61 vhcurveto
          73 vlineto
          -61 -46 -7 0 hvcurveto
          2 116 0 186 -2 114 rrcurveto
          0 46 -7 61 vhcurveto
          72 vlineto
          -61 -46 -6 0 hvcurveto
          0 7 76 68 vvcurveto
          endchar
        </CharString>
        <CharString name="danda">
          -109 146 hmoveto
          85 655 -85 hlineto
          endchar
        </CharString>
        <CharString name="dcaron">
          59 75 callsubr
          158 235 23 callsubr
          endchar
        </CharString>
        <CharString name="dcroat">
          48 297 727 rmoveto
          -47 -125 -50 125 -56 -81 vlineto
          -102 -61 -58 -99 hvcurveto
          -279 vlineto
          -89 47 -52 91 58 33 23 16 17 vhcurveto
          -36 91 630 40 50 -40 47 vlineto
          -93 -619 rmoveto
          -14 -16 -30 -14 -38 hhcurveto
          -45 -22 23 46 hvcurveto
          266 vlineto
          52 29 24 53 vhcurveto
          69 hlineto
          endchar
        </CharString>
        <CharString name="degree">
          -15 196 502 rmoveto
          107 40 67 88 88 -40 66 -107 -108 -38 -66 -88 -88 38 -67 108 hvcurveto
          71 vmoveto
          -59 -12 34 49 49 12 35 59 59 13 -35 -49 -49 -13 -34 -59 hvcurveto
          endchar
        </CharString>
        <CharString name="dieresis">
          -54 103 630 -91 callsubr
          endchar
        </CharString>
        <CharString name="divide">
          49 40 364 rmoveto
          -78 372 78 vlineto
          -184 -262 rmoveto
          39 12 320 callsubr
          13 -22 38 hvcurveto
          343 vmoveto
          38 13 320 callsubr
          12 -22 39 hvcurveto
          endchar
        </CharString>
        <CharString name="dollar">
          -3 156 739 rmoveto
          -61 vlineto
          -88 -15 -42 -53 -76 vvcurveto
          -60 vlineto
          -70 33 -42 56 -31 vhcurveto
          113 -61 rlineto
          40 -22 13 -18 -41 vvcurveto
          -34 vlineto
          -43 -30 -32 -80 -53 -53 12 12 -33 vhcurveto
          -88 vlineto
          21 -8 44 -10 51 -2 rrcurveto
          -65 85 68 vlineto
          95 16 45 52 79 vvcurveto
          56 vlineto
          64 -27 40 -54 30 vhcurveto
          -116 64 rlineto
          -42 23 -15 21 44 vvcurveto
          39 vlineto
          44 27 26 67 53 46 -8 -12 31 vhcurveto
          88 vlineto
          -20 7 -35 7 -46 2 rrcurveto
          58 vlineto
          endchar
        </CharString>
        <CharString name="dotaccent">
          -54 174 647 33 callsubr
        </CharString>
        <CharString name="dotlessi">
          78 callgsubr
          endchar
        </CharString>
        <CharString name="dottedcircle">
          256 183 472 rmoveto
          26 18 19 26 25 -18 19 -26 -26 -18 -19 -25 -26 18 -19 26 hvcurveto
          -80 -109 rmoveto
          24 20 19 25 25 -20 19 -24 -26 -20 -19 -25 -25 20 -19 26 hvcurveto
          -15 -125 rmoveto
          26 18 18 319 callgsubr
          -18 25 hvcurveto
          52 -117 rmoveto
          25 19 18 26 25 -19 19 -25 -26 -18 -19 -25 -26 18 -18 26 hvcurveto
          102 -77 rmoveto
          25 19 20 26 24 -19 20 -25 -26 -19 -20 -24 -26 19 -20 26 hvcurveto
          126 -14 rmoveto
          26 19 18 26 26 -19 18 -26 277 callgsubr
          121 53 rmoveto
          25 20 18 26 25 -20 19 -25 -25 -19 -19 -25 -26 19 -18 25 hvcurveto
          74 98 rmoveto
          24 19 19 25 26 -19 19 -24 -26 -19 -19 -26 -25 19 -19 26 hvcurveto
          9 134 rmoveto
          25 19 18 26 26 -19 18 -25 277 callgsubr
          -50 118 rmoveto
          26 18 19 319 callgsubr
          -19 25 hvcurveto
          -94 68 rmoveto
          25 18 20 24 26 -18 19 -25 -26 -19 -19 -26 -24 19 -20 26 hvcurveto
          -127 15 rmoveto
          26 18 18 26 26 -18 18 -26 277 callgsubr
          endchar
        </CharString>
        <CharString name="doubledanda">
          41 93 hmoveto
          85 655 -85 hlineto
          203 -655 rmoveto
          85 655 -85 hlineto
          endchar
        </CharString>
        <CharString name="dvA">
          170 237 137 callgsubr
          93 72 -178 -368 -108 vlineto
          -71 callgsubr
          endchar
        </CharString>
        <CharString name="dvAA">
          400 254 182 rmoveto
          39 callsubr
          -391 -368 -108 vlineto
          -71 callgsubr
          endchar
        </CharString>
        <CharString name="dvAI">
          27 287 655 rmoveto
          -315 -72 89 -441 hlineto
          326 callgsubr
          78 vlineto
          -10 -29 -43 -9 -50 hhcurveto
          -66 -23 26 44 hvcurveto
          439 69 callgsubr
          -85 vlineto
          -156 230 rlineto
          -95 hlineto
          endchar
        </CharString>
        <CharString name="dvAU">
          401 374 811 rmoveto
          127 callsubr
          106 callgsubr
          -107 -368 -108 hlineto
          -71 callgsubr
          -64 vlineto
          39 callsubr
          -96 vlineto
          16 callgsubr
          endchar
        </CharString>
        <CharString name="dvAbbreviationsign">
          -15 196 178 rmoveto
          107 40 64 88 88 -40 65 -107 -108 -38 -65 -88 -88 38 -64 108 hvcurveto
          234 vmoveto
          59 13 -33 -49 -49 -13 -33 -59 -59 -12 33 49 49 12 33 59 hvcurveto
          endchar
        </CharString>
        <CharString name="dvAcandra">
          170 237 137 callgsubr
          93 72 -178 -368 -108 vlineto
          -71 callgsubr
          322 610 21 callgsubr
          endchar
        </CharString>
        <CharString name="dvAnusvara">
          -404 -107 727 -34 callsubr
          endchar
        </CharString>
        <CharString name="dvAnusvara.amI">
          -404 78 720 -34 callsubr
          endchar
        </CharString>
        <CharString name="dvAvagraha">
          16 387 197 rmoveto
          63 -15 43 -65 39 vhcurveto
          -130 77 rlineto
          -37 22 -10 23 36 vvcurveto
          20 vlineto
          32 7 24 63 vhcurveto
          163 79 -167 hlineto
          -113 -38 -48 -84 hvcurveto
          -26 vlineto
          -60 22 -44 56 -33 vhcurveto
          132 -79 rlineto
          38 -22 9 -24 -37 vvcurveto
          -56 vlineto
          -37 -13 -31 -71 vhcurveto
          -3 hlineto
          -71 -13 31 37 hvcurveto
          66 -85 -64 vlineto
          -94 48 -55 119 vhcurveto
          8 hlineto
          119 47 55 94 hvcurveto
          endchar
        </CharString>
        <CharString name="dvB">
          -169 -28 655 rmoveto
          -72 408 72 vlineto
          -338 -447 rmoveto
          -92 50 -51 116 114 49 50 93 vhcurveto
          155 vlineto
          93 -49 49 -114 -120 -46 -51 -91 vhcurveto
          251 -134 rmoveto
          -157 176 rlineto
          17 12 22 11 38 hhcurveto
          65 20 -30 -43 hvcurveto
          -169 -15 rmoveto
          158 -179 rlineto
          -18 -11 -22 -10 -41 hhcurveto
          -65 -19 27 45 hvcurveto
          endchar
        </CharString>
        <CharString name="dvBA">
          29 289 178 callsubr
          -107 -56 -43 -97 hvcurveto
          -159 102 callsubr
          -490 -72 317 vlineto
          -77 -150 24 callsubr
        </CharString>
        <CharString name="dvBH">
          9 254 191 88 callgsubr
          243 73 rmoveto
          -158 10 callgsubr
          161 vlineto
          endchar
        </CharString>
        <CharString name="dvBHA">
          199 254 191 66 callgsubr
          -103 -43 -45 -82 hvcurveto
          -91 -62 callgsubr
        </CharString>
        <CharString name="dvBH_LA">
          626 254 191 88 callgsubr
          712 -333 rmoveto
          -60 callgsubr
          -663 -72 485 -111 vlineto
          6 -15 -21 5 -30 hhcurveto
          -55 114 callgsubr
          -73 -46 -28 -50 -19 hvcurveto
          -120 10 callgsubr
          113 -172 vlineto
          -92 callsubr
          vlineto
          endchar
        </CharString>
        <CharString name="dvBH_NA">
          580 254 191 88 callgsubr
          666 -333 229 callsubr
          -612 -72 435 317 callsubr
          -74 -43 -26 -50 -17 hvcurveto
          -113 118 hlineto
          87 -44 49 -102 -102 -44 -49 -87 -24 4 -24 200 callgsubr
          126 callgsubr
          -116 209 callgsubr
          -91 vlineto
          -82 42 209 callsubr
          145 108 -141 -98 callsubr
          118 -405 hlineto
          -199 405 rmoveto
          2 -4 8 -27 -38 vvcurveto
          -144 vlineto
          -36 -12 -21 -48 -48 -12 22 35 vhcurveto
          156 -64 callgsubr
          endchar
        </CharString>
        <CharString name="dvBH_R">
          24 501 432 rmoveto
          -158 92 hlineto
          87 -44 49 -101 -102 -44 -49 -87 -20 3 -22 155 callsubr
          -3 19 21 vvcurveto
          35 8 25 53 52 8 -24 -36 vhcurveto
          -90 -63 vlineto
          -104 -43 -46 -83 hvcurveto
          -46 vlineto
          -83 43 -46 104 103 349 callsubr
          102 160 vlineto
          -69 vmoveto
          -305 -340 rlineto
          104 hlineto
          90 98 44 49 49 71 18 30 rlinecurve
          -243 61 86 callsubr
          endchar
        </CharString>
        <CharString name="dvBH_RA">
          205 460 244 -20 callgsubr
          -104 -43 -46 -83 hvcurveto
          -46 vlineto
          -83 43 -46 104 103 349 callsubr
          102 119 vlineto
          -202 -100 86 callsubr
          endchar
        </CharString>
        <CharString name="dvBH_R_YA">
          505 254 259 -40 callsubr
          -9 22 35 vhcurveto
          35 vlineto
          35 9 8 callsubr
          85 71 rmoveto
          102 vlineto
          87 -44 49 -102 -101 -44 -49 -87 -8 1 -31 155 callsubr
          -1 30 7 vvcurveto
          35 8 25 52 53 8 -24 -36 vhcurveto
          -100 -64 vlineto
          -103 -43 -45 -82 hvcurveto
          -39 vlineto
          -83 43 -46 103 104 349 callsubr
          94 75 vlineto
          17 13 -2 -6 9 hvcurveto
          -82 vlineto
          -13 1 -13 2 -11 vhcurveto
          -245 -273 rlineto
          104 hlineto
          90 98 27 30 30 39 22 33 rlinecurve
          -47 35 60 -18 72 hhcurveto
          57 35 13 18 20 hvcurveto
          -116 90 callgsubr
          -542 -72 127 vlineto
          40 13 -23 -40 hvcurveto
          -60 vlineto
          -46 -17 -18 -49 -4 vhcurveto
          20 -15 -30 10 -47 hhcurveto
          116 -153 rmoveto
          60 282 callgsubr
          72 329 callgsubr
          123 -342 hlineto
          -53 -10 -28 -24 -71 hhcurveto
          -87 -31 35 70 hvcurveto
          endchar
        </CharString>
        <CharString name="dvBH_VA">
          432 690 150 rmoveto
          -4 -10 -30 77 callsubr
          22 28 58 134 callsubr
          12 vhcurveto
          -436 -230 88 callgsubr
          518 -333 229 callsubr
          -463 -72 286 208 callsubr
          -88 -48 -37 -62 -14 hvcurveto
          -113 10 callgsubr
          112 -129 338 callgsubr
          59 callsubr
          vlineto
          endchar
        </CharString>
        <CharString name="dvBH_YA">
          505 254 218 callgsubr
          156 hmoveto
          27 callsubr
          -103 -43 -45 -83 hvcurveto
          -99 vlineto
          -82 43 -47 103 288 callsubr
          154 vlineto
          322 178 76 callsubr
          endchar
        </CharString>
        <CharString name="dvB_BA">
          285 545 178 callsubr
          -107 -56 -43 -97 hvcurveto
          -115 51 callsubr
          58 40 14 27 25 vhcurveto
          -28 28 44 -13 58 hhcurveto
          41 29 7 5 12 hvcurveto
          -77 291 callgsubr
          -746 -72 573 vlineto
          -334 -445 52 callgsubr
          257 hmoveto
          -40 callgsubr
        </CharString>
        <CharString name="dvB_BHA">
          449 -28 583 rmoveto
          272 72 -272 hlineto
          532 -464 -49 callgsubr
          21 36 vhcurveto
          85 95 callgsubr
          -296 -195 rmoveto
          -65 118 callgsubr
          -55 hhcurveto
          296 268 rmoveto
          241 callsubr
          -25 vlineto
          -167 132 -68 callsubr
          116 51 38 12 22 25 vhcurveto
          -26 23 38 -14 57 hhcurveto
          104 42 47 82 hvcurveto
          145 118 -333 -94 callsubr
          -177 -249 -115 118 vlineto
          87 -44 49 -102 -101 -45 -49 -87 -23 4 -25 200 callgsubr
          27 19 73 callgsubr
          endchar
        </CharString>
        <CharString name="dvB_BH_RA">
          450 -28 583 rmoveto
          275 72 -275 hlineto
          733 -411 -20 callgsubr
          -104 -43 -46 -83 hvcurveto
          -46 vlineto
          -3 vlineto
          -166 132 -68 callsubr
          116 80 46 29 50 19 vhcurveto
          -10 22 29 -6 36 hhcurveto
          103 43 46 83 hvcurveto
          102 119 vlineto
          -497 -221 rmoveto
          -65 118 callgsubr
          -55 hhcurveto
          295 121 86 callsubr
          endchar
        </CharString>
        <CharString name="dvB_DA">
          260 243 callsubr
          -3 0 -2 1 -2 vhcurveto
          -30 -9 -24 -15 -51 hhcurveto
          400 111 rmoveto
          -83 -94 hlineto
          -6 193 callgsubr
          -58 -22 25 40 hvcurveto
          152 166 callsubr
          -720 -72 541 114 callsubr
          -112 vlineto
          -166 132 69 callsubr
          59 39 15 27 24 vhcurveto
          -24 26 39 -13 52 hhcurveto
          34 23 3 6 22 hvcurveto
          -85 83 vlineto
          endchar
        </CharString>
        <CharString name="dvB_DHA">
          330 208 138 rmoveto
          -65 118 callgsubr
          -55 hhcurveto
          101 445 rmoveto
          0 -10 -22 -41 88 callsubr
          -12 vlineto
          -166 132 -68 callsubr
          116 58 41 15 28 24 vhcurveto
          -31 32 50 -16 64 hhcurveto
          48 33 6 7 27 hvcurveto
          -19 callsubr
          -511 -72 hlineto
          endchar
        </CharString>
        <CharString name="dvB_DH_VA">
          568 195 callgsubr
          615 356 rmoveto
          4 -11 -34 240 callgsubr
          -14 1 -13 2 -12 vhcurveto
          -7 -32 -34 -5 -33 -41 callsubr
          -483 -72 335 133 callsubr
          -23 131 callsubr
          65 43 19 34 24 vhcurveto
          -28 32 50 -14 64 hhcurveto
          51 49 12 10 39 hvcurveto
          -32 callsubr
        </CharString>
        <CharString name="dvB_JA">
          474 612 356 rmoveto
          42 -8 22 0 vhcurveto
          125 -420 85 583 88 72 -930 49 callsubr
          -488 140 124 callgsubr
        </CharString>
        <CharString name="dvB_JHA">
          568 208 129 rmoveto
          -65 -19 28 45 hvcurveto
          114 vlineto
          168 -133 rlineto
          -35 -6 -23 -19 -55 hhcurveto
          356 114 rmoveto
          57 321 callgsubr
          -26 2 6 -18 294 callgsubr
          101 49 40 91 hvcurveto
          40 vlineto
          29 -9 23 -16 13 vhcurveto
          128 -248 -94 callsubr
          -1028 -72 653 -78 -84 hlineto
          -103 250 callsubr
          -20 3 -18 5 -15 vhcurveto
          -103 -71 hlineto
          -166 132 rlineto
          29 7 23 17 51 hhcurveto
          26 23 -4 0 hvcurveto
          72 vlineto
          0 -25 5 -29 -115 -46 -51 -92 271 callgsubr
          -91 50 -51 116 118 40 57 80 vhcurveto
          49 vlineto
          173 74 rmoveto
          -52 1 -14 20 34 vvcurveto
          5 vlineto
          34 15 19 53 vhcurveto
          169 153 113 -266 hlineto
          endchar
        </CharString>
        <CharString name="dvB_J_YA">
          770 175 655 rmoveto
          -72 2 72 vlineto
          747 -135 212 callgsubr
          69 -45 callsubr
          101 -457 rmoveto
          -94 callsubr
          -909 -72 540 hlineto
          0 7 -30 callgsubr
          -51 vlineto
          -42 -14 -18 -39 -7 vhcurveto
          64 -6 -45 27 -84 hhcurveto
          -218 -77 84 hlineto
          0 9 -30 callgsubr
          -146 vlineto
          -45 -25 -26 -59 -34 -61 15 7 -25 vhcurveto
          -27 -74 rlineto
          -10 31 67 -16 52 hhcurveto
          107 59 51 96 hvcurveto
          151 vlineto
          42 -8 22 0 vhcurveto
          28 hlineto
          59 24 -7 -43 hvcurveto
          -110 vlineto
          50 callsubr
          43 37 6 5 23 vhcurveto
          -983 226 rmoveto
          -73 vlineto
          3 24 2 58 1 vhcurveto
          61 vlineto
          -57 1 -25 2 3 vvcurveto
          329 -73 rmoveto
          73 vlineto
          -4 -24 -2 -54 -1 vhcurveto
          -60 vlineto
          54 -1 24 -1 -4 vvcurveto
          -78 87 rmoveto
          24 -67 65 -41 vhcurveto
          -23 5 -6 -5 4 -12 rrcurveto
          13 47 -53 -45 34 hvcurveto
          -14 -15 0 -17 hhcurveto
          -33 -27 0 1 -23 hvcurveto
          2 -1 2 1 vvcurveto
          -5 1 vlineto
          5 -12 16 -24 20 -25 rrcurveto
          -16 -14 0 -12 hhcurveto
          -21 vlineto
          -26 65 -63 43 vhcurveto
          24 -5 7 5 -4 14 rrcurveto
          -13 -46 51 45 -34 hvcurveto
          13 14 0 15 34 28 0 23 hhcurveto
          -1 0 0 -1 vvcurveto
          2 vlineto
          0 vlineto
          -3 9 -15 24 -21 27 rrcurveto
          15 12 0 12 hhcurveto
          endchar
        </CharString>
        <CharString name="dvB_JxA">
          474 612 205 rmoveto
          151 vlineto
          42 -8 22 0 vhcurveto
          125 -420 -36 callsubr
          -935 49 callsubr
          -295 -190 rmoveto
          309 callgsubr
          11 -22 39 38 13 22 29 28 -12 22 -38 hvcurveto
          -193 330 124 callgsubr
        </CharString>
        <CharString name="dvB_LA">
          475 211 138 52 callgsubr
          604 445 rmoveto
          92 72 -935 -72 758 -111 hlineto
          -42 callsubr
          -100 -48 -53 -87 hvcurveto
          -94 51 callsubr
          42 33 8 14 25 vhcurveto
          -57 21 51 -30 91 -24 callsubr
          85 vlineto
          endchar
        </CharString>
        <CharString name="dvB_L_YA">
          768 195 callgsubr
          713 382 12 callsubr
          109 -408 hlineto
          -6 -25 -34 -5 -41 296 callgsubr
          -90 194 callsubr
          7 -30 callgsubr
          -63 vlineto
          -42 -14 -18 -40 -7 vhcurveto
          58 -15 -43 35 -77 hhcurveto
          -52 -30 -19 -28 -21 hvcurveto
          25 -16 -35 23 -57 hhcurveto
          -100 -45 -53 -87 hvcurveto
          -90 131 callsubr
          41 32 8 14 24 vhcurveto
          -57 21 50 -30 89 hhcurveto
          13 43 1 1 7 hvcurveto
          77 vlineto
          -1 -8 -42 -1 -9 hhcurveto
          -78 -16 -51 callgsubr
          11 27 55 54 11 -27 -36 vhcurveto
          -133 85 133 vlineto
          38 11 25 49 55 8 -25 -38 vhcurveto
          -82 vlineto
          -129 92 -46 115 221 callsubr
          -1228 -72 vlineto
          endchar
        </CharString>
        <CharString name="dvB_NA">
          421 204 426 rmoveto
          64 17 -24 -48 hvcurveto
          -97 vlineto
          -158 123 rlineto
          29 6 21 17 50 hhcurveto
          -288 vmoveto
          -63 -17 27 45 hvcurveto
          108 vlineto
          160 -124 rlineto
          -37 -4 -21 -19 -55 hhcurveto
          472 267 rmoveto
          -405 -94 callsubr
          -881 -72 704 317 callsubr
          -44 -33 -9 -18 -23 hvcurveto
          28 -24 -39 16 -61 hhcurveto
          -115 -46 -51 -91 hvcurveto
          -149 vlineto
          -92 46 -51 115 51 37 12 20 24 vhcurveto
          -26 23 37 -13 52 -68 callgsubr
        </CharString>
        <CharString name="dvB_R">
          -166 32 -73 rmoveto
          109 hlineto
          148 144 rlineto
          54 53 31 29 68 vvcurveto
          142 vlineto
          93 -50 49 -113 -120 -46 -51 -91 vhcurveto
          -142 vlineto
          -85 43 -49 103 -6 vhcurveto
          -219 502 rmoveto
          423 72 -423 hlineto
          239 -222 rmoveto
          64 21 -25 -48 hvcurveto
          -94 vlineto
          -167 121 rlineto
          30 8 23 16 51 hhcurveto
          -282 vmoveto
          -65 -20 28 45 hvcurveto
          103 vlineto
          168 -123 rlineto
          -34 -5 -24 -19 -54 hhcurveto
          endchar
        </CharString>
        <CharString name="dvB_RA">
          33 293 493 rmoveto
          5 -13 -29 7 -43 hhcurveto
          -107 -56 -43 -97 hvcurveto
          -141 186 callgsubr
          -105 80 -88 callsubr
          -493 -72 321 vlineto
          -78 -427 99 callsubr
        </CharString>
        <CharString name="dvB_SA">
          448 243 callsubr
          -10 vlineto
          -27 -9 -24 -15 -50 hhcurveto
          396 -124 rmoveto
          78 vlineto
          -10 -33 -33 30 callgsubr
          -909 -72 525 hlineto
          -97 callsubr
          -196 vlineto
          -167 132 rlineto
          30 7 22 17 52 hhcurveto
          17 14 -3 0 hvcurveto
          73 vlineto
          0 -17 2 -19 -115 49 callgsubr
          118 40 32 7 13 24 vhcurveto
          -58 23 60 -32 87 hhcurveto
          339 callsubr
          28 hvcurveto
          97 -67 callgsubr
          endchar
        </CharString>
        <CharString name="dvB_SHA">
          446 -28 583 rmoveto
          271 72 -271 hlineto
          729 hmoveto
          -655 -94 callsubr
          vlineto
          -667 -517 52 callgsubr
          399 383 rmoveto
          87 -49 52 -107 -107 -50 -52 -87 -16 3 -19 1 -6 vhcurveto
          85 hlineto
          -2 5 -2 15 18 vvcurveto
          36 14 28 58 57 14 -27 -36 vhcurveto
          -133 vlineto
          -36 -14 -26 -57 -29 -27 6 5 -16 vhcurveto
          69 -85 -153 vlineto
          -170 135 69 callsubr
          43 33 8 15 25 vhcurveto
          -56 24 58 -34 84 hhcurveto
          56 38 8 10 32 hvcurveto
          -70 callsubr
          endchar
        </CharString>
        <CharString name="dvB_TA">
          288 211 138 52 callgsubr
          247 -60 rmoveto
          -26 callgsubr
          219 vlineto
          38 20 29 61 32 33 -7 -4 14 135 callsubr
          93 72 -749 -72 571 -93 vlineto
          324 callsubr
          -108 51 callsubr
          39 31 7 12 23 vhcurveto
          -54 13 40 -31 79 hhcurveto
          23 hlineto
          endchar
        </CharString>
        <CharString name="dvB_VA">
          277 211 138 rmoveto
          -68 118 callgsubr
          -52 hhcurveto
          321 356 rmoveto
          35 callsubr
          -112 vlineto
          -167 132 69 callsubr
          55 38 14 25 25 vhcurveto
          -25 25 39 -14 55 151 callgsubr
          -738 -72 560 vlineto
          3 -433 -92 callgsubr
          endchar
        </CharString>
        <CharString name="dvB_YA">
          348 211 138 52 callgsubr
          291 382 -63 callgsubr
          -6 vlineto
          -166 132 69 callsubr
          72 45 23 40 22 vhcurveto
          -31 38 54 -12 59 83 callsubr
          -809 -72 vlineto
          endchar
        </CharString>
        <CharString name="dvC">
          302 callsubr
          9 -434 rmoveto
          -8 -24 -37 -6 -28 hhcurveto
          -56 -25 174 callgsubr
          49 -50 106 33 44 7 7 23 vhcurveto
          endchar
        </CharString>
        <CharString name="dvCA">
          65 168 259 callgsubr
          -259 -76 80 260 callsubr
          47 -50 106 33 28 5 7 23 vhcurveto
          -71 -94 callsubr
          -525 -72 348 189 callsubr
          endchar
        </CharString>
        <CharString name="dvCH">
          115 261 487 rmoveto
          -73 vlineto
          0 22 10 30 59 15 -24 -47 vhcurveto
          -180 136 callsubr
          336 72 -575 -72 113 hlineto
          137 callsubr
          194 vlineto
          81 -44 51 -98 vhcurveto
          -36 1 -31 -10 0 vvcurveto
          endchar
        </CharString>
        <CharString name="dvCHA">
          116 58 385 rmoveto
          191 callgsubr
          -107 59 110 callsubr
          -576 -72 96 -11 callgsubr
        </CharString>
        <CharString name="dvCH_R">
          -16 callgsubr
          271 -690 -37 callgsubr
          endchar
        </CharString>
        <CharString name="dvCH_RA">
          -16 callgsubr
          endchar
        </CharString>
        <CharString name="dvCH_R_YA">
          619 261 14 rmoveto
          5 hlineto
          64 -132 rlineto
          88 hlineto
          -72 138 rlineto
          89 16 33 47 87 vvcurveto
          194 vlineto
          21 -2 19 -5 16 vhcurveto
          172 hlineto
          334 callsubr
          -11 vlineto
          -44 -20 -11 -60 vhcurveto
          -45 -63 87 callgsubr
          -1083 -72 96 vlineto
          0 -10 -30 callgsubr
          -135 vlineto
          191 callgsubr
          -85 38 -45 91 -15 vhcurveto
          -72 -137 rlineto
          88 hlineto
          64 132 rlineto
          508 125 278 callsubr
          46 35 81 hvcurveto
          19 vlineto
          87 -44 41 -101 vhcurveto
          -231 86 478 278 callgsubr
          -626 381 rmoveto
          -56 callsubr
        </CharString>
        <CharString name="dvCH_YA">
          607 947 hmoveto
          -60 callgsubr
          -1068 -72 113 vlineto
          137 callsubr
          211 vlineto
          12 -1 12 -2 11 vhcurveto
          151 hlineto
          49 11 -20 -36 hvcurveto
          -6 214 callgsubr
          vlineto
          -601 504 346 callgsubr
          -46 vhcurveto
          -198 136 callsubr
          651 -433 hlineto
          -6 -31 -36 -5 -42 hhcurveto
          -88 -29 258 callsubr
          15 vlineto
          87 -45 41 -100 vhcurveto
          -201 hlineto
          13 -22 -29 7 -36 hhcurveto
          -36 -31 -10 0 hvcurveto
          endchar
        </CharString>
        <CharString name="dvC_CA">
          312 415 259 callgsubr
          -223 -74 44 hlineto
          0 -9 -29 -49 vvcurveto
          -132 vlineto
          -20 2 -19 5 -16 vhcurveto
          -6 -23 -28 -4 -31 hhcurveto
          -58 -29 20 48 hvcurveto
          129 vlineto
          193 callsubr
          61 74 -228 -76 80 260 callsubr
          60 -50 106 54 51 13 11 29 vhcurveto
          -16 24 33 -8 43 hhcurveto
          33 29 5 7 22 hvcurveto
          -71 -94 callsubr
          -772 -72 595 189 callsubr
          endchar
        </CharString>
        <CharString name="dvC_CHA">
          399 342 385 rmoveto
          191 callgsubr
          -6 0 -6 1 -5 vhcurveto
          -7 -24 -28 -5 -32 65 callgsubr
          45 39 9 8 27 vhcurveto
          -43 29 59 -19 99 hhcurveto
          153 54 45 111 hvcurveto
          67 callgsubr
          -860 -72 380 -11 callgsubr
        </CharString>
        <CharString name="dvC_CH_VA">
          400 342 385 rmoveto
          96 callsubr
          -15 229 callgsubr
          -6 0 -6 1 -5 vhcurveto
          -6 -24 -29 -6 -32 65 callgsubr
          45 40 9 8 27 vhcurveto
          11 -17 17 -14 23 -10 rrcurveto
          -26 -18 -16 -27 -41 vvcurveto
          -35 vlineto
          -91 58 -43 102 36 28 3 7 25 vhcurveto
          -56 85 313 vlineto
          35 25 15 40 58 vvcurveto
          194 vlineto
          63 -18 41 -50 16 vhcurveto
          99 148 72 -860 -72 381 vlineto
          0 -11 -30 callgsubr
          191 -668 rmoveto
          -62 -22 23 41 hvcurveto
          33 vlineto
          41 20 24 63 vhcurveto
          0 vlineto
          5 4 0 5 hhcurveto
          27 23 1 3 21 hvcurveto
          -156 vlineto
          -7 -26 -24 -3 -34 hhcurveto
          -106 668 rmoveto
          41 11 22 0 vhcurveto
          168 -87 hlineto
          -36 -27 -8 0 hvcurveto
          -73 vlineto
          0 23 9 32 56 72 callsubr
          -102 -103 -21 17 59 vhcurveto
          24 vlineto
          41 18 20 58 vhcurveto
          58 75 -60 201 callsubr
          24 35 vvcurveto
          endchar
        </CharString>
        <CharString name="dvC_MA">
          474 617 261 callsubr
          -196 -243 -85 callsubr
          196 -362 rmoveto
          263 callgsubr
          -935 -72 563 312 callgsubr
          -16 2 -15 3 -13 vhcurveto
          -6 -23 -26 -4 -28 65 callgsubr
          52 50 13 10 26 vhcurveto
          -15 23 31 -7 42 162 callgsubr
        </CharString>
        <CharString name="dvC_NA">
          462 717 405 rmoveto
          -405 -94 callsubr
          -928 -72 751 221 callgsubr
          -17 2 -15 3 -14 vhcurveto
          -6 -25 -29 -5 -30 hhcurveto
          -58 -27 174 callgsubr
          58 -50 106 55 47 12 12 29 vhcurveto
          -17 23 32 -8 41 -68 callgsubr
        </CharString>
        <CharString name="dvC_R">
          302 callsubr
          22 -423 rmoveto
          -7 -24 -29 -5 -40 hhcurveto
          -65 -25 22 45 hvcurveto
          117 vlineto
          141 callsubr
          -258 -76 79 182 callsubr
          -119 vlineto
          -91 49 -50 112 vhcurveto
          1 hlineto
          -150 -132 rlineto
          106 hlineto
          150 137 rlineto
          endchar
        </CharString>
        <CharString name="dvC_RA">
          67 169 259 callgsubr
          -254 -76 75 hlineto
          0 -8 -27 -49 vvcurveto
          -85 vlineto
          -81 37 -49 82 -9 vhcurveto
          -136 -146 rlineto
          103 hlineto
          145 154 2 1 2 0 2 1 rlinecurve
          -118 -94 callsubr
          -527 -72 350 -395 vlineto
          -8 -25 -20 -3 -29 hhcurveto
          -56 -23 22 45 hvcurveto
          endchar
        </CharString>
        <CharString name="dvC_YA">
          388 542 520 -63 callgsubr
          -39 8 -31 15 -25 vhcurveto
          -10 -30 -35 -8 -37 hhcurveto
          -58 -28 22 45 hvcurveto
          118 vlineto
          141 callsubr
          -259 -76 80 182 callsubr
          -120 vlineto
          -91 59 -50 111 76 55 23 17 31 vhcurveto
          -18 35 43 -8 47 83 callsubr
          -849 -72 vlineto
          endchar
        </CharString>
        <CharString name="dvCandrabindu">
          -404 -106 854 rmoveto
          37 11 20 28 28 -11 21 -37 -38 -11 -21 -28 -28 11 -20 38 hvcurveto
          90 2 21 callgsubr
          endchar
        </CharString>
        <CharString name="dvD">
          7 40 209 rmoveto
          -74 callgsubr
          -467 -72 288 -83 -63 hlineto
          -107 -50 -41 -93 hvcurveto
          433 -579 -37 callgsubr
          endchar
        </CharString>
        <CharString name="dvDA">
          7 40 209 rmoveto
          -74 callgsubr
          -467 -72 288 -83 -63 hlineto
          -107 -50 -41 -93 hvcurveto
          endchar
        </CharString>
        <CharString name="dvDA_mvR">
          7 40 262 rmoveto
          -89 53 -50 103 30 26 3 7 24 vhcurveto
          -52 vlineto
          -2 -2 0 -1 hhcurveto
          -95 -53 -43 -100 -101 63 -42 95 30 20 1 5 31 hvcurveto
          80 vlineto
          -4 -28 -23 -3 -28 hhcurveto
          -42 -35 6 58 57 33 6 41 22 26 -3 -3 30 hvcurveto
          295 -83 -82 vlineto
          -4 -18 -21 -4 -32 hhcurveto
          -58 -21 25 39 hvcurveto
          99 174 callsubr
        </CharString>
        <CharString name="dvDD">
          13 376 -50 callgsubr
          -10 43 42 -6 52 hhcurveto
          123 60 48 93 hvcurveto
          -12 -346 -37 callgsubr
          endchar
        </CharString>
        <CharString name="dvDDA">
          12 376 -50 callgsubr
          -10 43 42 -6 52 hhcurveto
          123 60 48 93 hvcurveto
          endchar
        </CharString>
        <CharString name="dvDDH">
          11 204 502 rmoveto
          -107 -48 -44 -91 hvcurveto
          -226 vlineto
          -93 51 -53 112 113 49 51 93 vhcurveto
          10 callsubr
          108 -715 -37 callgsubr
          endchar
        </CharString>
        <CharString name="dvDDHA">
          11 204 502 rmoveto
          -107 -48 -44 -91 hvcurveto
          -226 vlineto
          -93 51 -53 112 113 49 51 93 vhcurveto
          7 callgsubr
        </CharString>
        <CharString name="dvDDH_DDHA">
          26 293 callsubr
          -46 14 -36 29 -24 vhcurveto
          -30 -22 -14 -34 -45 vvcurveto
          -147 vlineto
          -90 55 -51 112 113 53 49 90 vhcurveto
          14 235 callgsubr
          -42 vhcurveto
          -9 vlineto
          -39 323 callsubr
          44 16 23 62 vhcurveto
          7 hlineto
          112 53 49 91 hvcurveto
          269 callgsubr
          25 34 22 -15 -43 vhcurveto
          -9 213 callgsubr
          112 72 -487 -72 291 -81 hlineto
          endchar
        </CharString>
        <CharString name="dvDDH_R">
          11 372 -314 -37 callgsubr
          -78 816 345 callsubr
          27 -46 56 -21 vhcurveto
          -73 -140 rlineto
          88 hlineto
          62 128 rlineto
          1 1 0 1 hhcurveto
          6 hlineto
          62 -128 rlineto
          88 hlineto
          -74 141 rlineto
          55 20 25 45 66 vvcurveto
          7 callgsubr
        </CharString>
        <CharString name="dvDDH_RA">
          11 204 502 345 callsubr
          26 -46 56 -21 vhcurveto
          -72 -138 rlineto
          88 hlineto
          61 126 rlineto
          1 2 0 1 hhcurveto
          7 hlineto
          61 -126 rlineto
          88 hlineto
          -73 139 rlineto
          55 20 24 45 66 vvcurveto
          7 callgsubr
        </CharString>
        <CharString name="dvDDH_VA">
          32 293 callsubr
          -66 29 -41 58 -18 vhcurveto
          -4 vlineto
          -55 -28 -38 -44 -43 19 -47 47 hvcurveto
          10 -41 38 -19 56 3 rrcurveto
          22 20 -19 2 10 hvcurveto
          55 -36 25 168 -39 125 rlineto
          44 20 22 38 58 vvcurveto
          269 callgsubr
          26 33 22 -16 -40 vhcurveto
          -11 213 callgsubr
          117 72 -492 -72 291 -81 hlineto
          -72 -569 rmoveto
          -38 -15 26 26 19 4 27 20 hvcurveto
          13 0 19 5 16 vhcurveto
          -3 16 18 -1 19 hhcurveto
          22 20 2 3 18 hvcurveto
          -1 -5 -1 -6 -5 vvcurveto
          -2 -4 -7 -140 -7 hhcurveto
          -28 -4 -18 4 -23 11 rrcurveto
          endchar
        </CharString>
        <CharString name="dvDDH_YA">
          504 212 -5 rmoveto
          309 callsubr
          hvcurveto
          -47 callsubr
          311 hlineto
          49 11 -21 -35 hvcurveto
          -14 214 callgsubr
          -36 callsubr
          -965 -72 288 -81 -56 vlineto
          207 callgsubr
          vhcurveto
          438 144 rmoveto
          -88 -29 31 63 hvcurveto
          3 vlineto
          79 46 35 80 hvcurveto
          23 vlineto
          87 -45 41 -100 vhcurveto
          -169 81 415 -433 hlineto
          -6 -31 -36 -5 -42 hhcurveto
          endchar
        </CharString>
        <CharString name="dvDDHxA">
          11 204 502 203 callsubr
          -49 38 -77 -29 -20 -8 0 vhcurveto
          -76 vlineto
          0 13 8 25 32 22 -15 -42 vhcurveto
          -33 vlineto
          -41 -15 -28 -64 -64 -15 29 41 vhcurveto
          222 vlineto
          36 13 23 58 vhcurveto
          140 159 99 72 -471 -72 288 -81 hlineto
          -48 -681 -53 callgsubr
          endchar
        </CharString>
        <CharString name="dvDD_DDA">
          26 36 93 rmoveto
          13 -3 14 -2 14 -3 rrcurveto
          -11 -18 -6 -22 -24 vvcurveto
          -89 63 -26 84 vhcurveto
          30 hlineto
          51 15 -16 -34 hvcurveto
          -13 vlineto
          -42 -22 -14 -72 -47 -65 9 10 -46 vhcurveto
          -73 vlineto
          -10 45 57 -9 56 hhcurveto
          124 57 37 91 hvcurveto
          224 callsubr
          -48 -15 14 34 37 16 13 47 hvcurveto
          0 vlineto
          1 2 0 1 hhcurveto
          124 57 37 91 hvcurveto
          224 callsubr
          -47 -15 14 33 hvcurveto
          4 vlineto
          34 15 13 47 vhcurveto
          266 callsubr
          -36 -77 hvcurveto
          -8 vlineto
          -89 56 -26 96 vhcurveto
          33 hlineto
          50 16 -15 -34 276 callgsubr
        </CharString>
        <CharString name="dvDD_DDHA">
          25 36 93 rmoveto
          13 -3 14 -2 16 -3 rrcurveto
          -20 -23 -10 -30 -36 vvcurveto
          -133 vlineto
          -91 55 -51 112 113 53 49 91 vhcurveto
          13 235 callgsubr
          -41 vhcurveto
          -9 vlineto
          -40 323 callsubr
          42 15 24 54 1 vhcurveto
          0 vlineto
          1 2 0 1 hhcurveto
          123 58 36 92 hvcurveto
          224 callsubr
          -47 -15 14 34 37 15 13 47 hvcurveto
          266 callsubr
          -35 -83 hvcurveto
          -4 vlineto
          -88 56 -26 96 vhcurveto
          33 hlineto
          50 16 -16 -33 276 callgsubr
        </CharString>
        <CharString name="dvDD_R">
          11 373 -50 callgsubr
          23 -5 23 -5 24 -2 -69 -132 rcurveline
          88 hlineto
          62 128 rlineto
          3 3 0 1 3 hvcurveto
          62 -129 rlineto
          88 hlineto
          -75 142 rlineto
          57 21 28 43 63 vvcurveto
          -12 -447 -37 callgsubr
          endchar
        </CharString>
        <CharString name="dvDD_RA">
          13 376 -50 callgsubr
          22 -5 22 -4 24 86 callgsubr
          55 21 27 42 63 vvcurveto
          endchar
        </CharString>
        <CharString name="dvDD_VA">
          30 37 93 rmoveto
          24 -6 30 -4 31 -4 rrcurveto
          -42 -8 -21 -34 -38 vvcurveto
          -43 18 -47 47 vhcurveto
          10 -41 38 -19 56 3 rrcurveto
          22 21 -19 2 9 hvcurveto
          55 -36 25 168 -41 122 rlineto
          49 19 23 36 58 vvcurveto
          224 callsubr
          -47 -16 14 33 hvcurveto
          4 vlineto
          34 16 13 47 vhcurveto
          158 149 100 72 -489 -72 302 -81 -68 hlineto
          -103 -50 -36 -77 hvcurveto
          -8 vlineto
          -89 55 -26 97 vhcurveto
          33 hlineto
          51 15 -16 -34 hvcurveto
          -12 vlineto
          -45 -27 -12 -67 -47 -77 8 10 -49 vhcurveto
          156 -232 rmoveto
          -38 -14 26 26 19 3 27 20 hvcurveto
          12 0 17 4 15 vhcurveto
          -1 14 15 0 13 hhcurveto
          28 25 2 4 21 hvcurveto
          -2 -9 -2 -9 -9 vvcurveto
          -3 -3 -7 -128 245 callgsubr
        </CharString>
        <CharString name="dvDD_YA">
          504 193 -8 rmoveto
          123 60 48 93 hvcurveto
          28 vlineto
          86 -50 44 -107 vhcurveto
          -20 hlineto
          -53 -14 21 34 hvcurveto
          28 285 callsubr
          315 hlineto
          334 callsubr
          -20 vlineto
          -44 -19 -11 -61 vhcurveto
          -45 -64 87 callgsubr
          -964 230 callgsubr
          vlineto
          147 callsubr
          -10 43 42 -6 52 hhcurveto
          457 147 rmoveto
          -89 -28 258 callsubr
          29 vlineto
          86 -45 39 -101 vhcurveto
          -166 78 413 -433 hlineto
          -6 -32 -35 -5 -42 hhcurveto
          endchar
        </CharString>
        <CharString name="dvDDxA">
          13 212 -179 rmoveto
          39 12 22 28 29 -12 22 -39 -38 -12 -22 -29 -28 12 -22 38 hvcurveto
          164 340 -46 callsubr
          -473 -72 289 -78 -62 hlineto
          -103 -49 -40 -87 hvcurveto
          -6 callgsubr
        </CharString>
        <CharString name="dvDH">
          -113 366 154 rmoveto
          -8 -27 -51 -8 -40 hhcurveto
          -66 -42 19 61 hvcurveto
          46 vlineto
          35 155 callgsubr
          79 94 callsubr
          58 246 callsubr
          -245 -72 97 hlineto
          0 -8 -21 -42 161 callgsubr
          -98 72 -52 113 45 50 8 8 31 vhcurveto
          endchar
        </CharString>
        <CharString name="dvDHA">
          92 71 583 rmoveto
          0 -10 -22 -41 161 callgsubr
          -100 71 -50 113 48 33 6 7 27 vhcurveto
          -19 callsubr
          -273 -72 hlineto
          endchar
        </CharString>
        <CharString name="dvDH_MA">
          496 557 191 82 callgsubr
          82 264 callsubr
          113 35 callgsubr
          -596 -72 225 216 callgsubr
          -104 -43 -45 -82 hvcurveto
          -118 vlineto
          -13 1 -12 2 -12 vhcurveto
          -7 -30 -34 -5 -35 hhcurveto
          -69 -41 19 61 hvcurveto
          44 vlineto
          35 155 callgsubr
          79 94 callsubr
          58 246 callsubr
          -245 -72 97 hlineto
          0 -8 -21 -42 88 callsubr
          -54 vlineto
          -97 71 -52 121 58 48 13 11 36 vhcurveto
          -18 23 35 -9 46 hhcurveto
          134 callgsubr
          hvcurveto
          308 callsubr
        </CharString>
        <CharString name="dvDH_NA">
          480 735 405 rmoveto
          -405 -36 callsubr
          -599 -72 421 221 callgsubr
          -15 1 -14 3 -12 vhcurveto
          -8 -30 -34 -5 -34 64 callgsubr
          56 49 13 11 35 vhcurveto
          -18 23 33 -9 43 hhcurveto
          98 44 47 87 hvcurveto
          146 vlineto
          37 -10 27 3 vvcurveto
          -82 hmoveto
          2 -4 8 -27 -38 vvcurveto
          -144 vlineto
          -36 -12 -21 -48 -48 -12 22 35 vhcurveto
          156 -64 callgsubr
          endchar
        </CharString>
        <CharString name="dvDH_N_YA">
          794 539 399 rmoveto
          285 callgsubr
          -138 vlineto
          -36 -13 -21 -47 -48 -13 22 35 vhcurveto
          150 vlineto
          36 13 21 48 vhcurveto
          459 121 -105 callsubr
          -91 138 55 callsubr
          -63 vlineto
          -43 -15 -18 -42 -6 vhcurveto
          60 -15 -54 27 -78 hhcurveto
          -172 hlineto
          -98 -45 -46 -87 hvcurveto
          -152 vlineto
          -15 1 -14 3 -13 vhcurveto
          -7 -31 -34 -5 -35 64 callgsubr
          57 51 13 10 35 vhcurveto
          -17 24 32 -9 43 hhcurveto
          98 43 47 87 hvcurveto
          140 180 callsubr
          42 hlineto
          47 30 -12 -37 hvcurveto
          -90 159 callsubr
          93 72 -889 -72 vlineto
          endchar
        </CharString>
        <CharString name="dvDH_R">
          -113 55 234 rmoveto
          202 callsubr
          79 vlineto
          -6 -37 -28 -3 -42 hhcurveto
          -71 -41 19 62 hvcurveto
          29 56 callsubr
          51 287 callgsubr
          70 72 -254 154 callsubr
          -53 206 callgsubr
          endchar
        </CharString>
        <CharString name="dvDH_RA">
          93 348 171 rmoveto
          58 callgsubr
          90 72 -275 -72 98 hlineto
          289 callgsubr
          -59 vlineto
          -45 11 -34 39 -17 vhcurveto
          109 callsubr
        </CharString>
        <CharString name="dvDH_VA">
          330 585 494 rmoveto
          4 -11 -34 240 callgsubr
          -14 1 -13 2 -12 vhcurveto
          -7 -32 -34 -5 -33 -41 callsubr
          -245 -72 97 133 callsubr
          -51 vlineto
          -98 71 -52 121 51 49 12 10 39 vhcurveto
          -32 callsubr
        </CharString>
        <CharString name="dvDH_YA">
          401 555 21 callsubr
          -245 -72 97 hlineto
          76 callgsubr
        </CharString>
        <CharString name="dvD_BA">
          30 206 133 rmoveto
          25 45 3 8 20 hvcurveto
          -126 vlineto
          -5 vlineto
          -141 109 rlineto
          7 12 16 4 23 hhcurveto
          -158 124 rmoveto
          -46 15 -32 30 -20 vhcurveto
          -28 -19 -17 -31 -48 vvcurveto
          -47 vlineto
          -91 48 -51 117 117 48 53 91 vhcurveto
          306 -82 -114 vlineto
          -4 -20 -34 -4 -28 hhcurveto
          -62 -19 25 38 hvcurveto
          96 342 callsubr
          98 72 -491 295 callgsubr
          -421 rmoveto
          -69 -15 30 43 hvcurveto
          46 vlineto
          5 0 5 1 4 vhcurveto
          147 -116 rlineto
          -11 -12 -20 -6 -32 hhcurveto
          endchar
        </CharString>
        <CharString name="dvD_BHA">
          121 218 -57 rmoveto
          11 -16 4 -19 -29 -20 -30 -22 -17 11 -10 16 -11 14 rcurveline
          -11 16 -4 19 28 21 36 25 rcurveline
          -32 273 rmoveto
          -80 43 -48 82 -9 vhcurveto
          -73 -53 -43 59 -34 48 -49 8 -56 -42 rlinecurve
          -57 -40 -9 -49 34 -49 16 -21 rcurveline
          52 37 -16 22 -10 15 -3 17 28 20 rlinecurve
          26 20 15 -8 12 -16 42 -58 rcurveline
          -36 -27 -58 -42 -8 -49 33 -45 rlinecurve
          13 -17 32 -46 49 -10 60 43 rlinecurve
          58 42 6 50 -32 46 -34 46 rcurveline
          146 104 2 1 2 0 2 1 rlinecurve
          -96 83 266 -83 -94 vlineto
          -5 193 callgsubr
          -59 -21 25 39 hvcurveto
          100 vlineto
          143 callgsubr
          147 160 96 72 -581 -72 401 114 callsubr
          endchar
        </CharString>
        <CharString name="dvD_B_RA">
          28 206 180 rmoveto
          28 42 5 9 20 hvcurveto
          -109 vlineto
          -3 0 -3 -3 vvcurveto
          -138 95 rlineto
          6 12 15 3 21 hhcurveto
          -158 124 rmoveto
          -45 15 -32 30 -20 vhcurveto
          -27 -20 -17 -31 -47 vvcurveto
          -28 vlineto
          -82 38 -44 89 -8 vhcurveto
          -105 -108 rlineto
          102 hlineto
          115 121 3 1 2 2 3 1 rlinecurve
          -74 82 438 -82 -68 vlineto
          -6 -17 -29 -7 -36 hhcurveto
          -62 -19 25 39 hvcurveto
          48 342 callsubr
          95 72 -488 295 callgsubr
          -354 rmoveto
          -69 -15 31 42 hvcurveto
          26 vlineto
          6 0 6 1 6 vhcurveto
          146 -100 -5 -5 -7 -3 -7 -3 rlinecurve
          -13 hlineto
          -4 -4 rlineto
          -1 -8 -9 -1 -10 hhcurveto
          endchar
        </CharString>
        <CharString name="dvD_DA">
          12 47 368 rmoveto
          -45 15 -30 29 -18 vhcurveto
          -29 -19 -15 -30 -45 vvcurveto
          -53 vlineto
          -82 52 -47 103 37 26 6 4 17 vhcurveto
          -76 83 228 -83 -80 vlineto
          -4 -15 -25 -6 -32 hhcurveto
          -58 -20 23 36 hvcurveto
          49 vlineto
          36 231 callgsubr
          97 73 -97 hlineto
          -58 -14 23 36 hvcurveto
          8 vlineto
          36 231 callgsubr
          147 146 94 72 -473 -72 295 -77 -72 hlineto
          -102 -46 -41 -85 hvcurveto
          endchar
        </CharString>
        <CharString name="dvD_DHA">
          168 204 209 rmoveto
          346 callsubr
          -67 -32 15 51 vhcurveto
          196 callsubr
          16 67 -16 hlineto
          123 callsubr
          164 callsubr
          91 72 -628 -72 452 305 callgsubr
          endchar
        </CharString>
        <CharString name="dvD_GA">
          19 50 232 rmoveto
          -62 25 -43 50 -20 vhcurveto
          -64 vlineto
          -38 -6 -23 -51 -11 -16 3 0 vhcurveto
          -74 vlineto
          0 16 -4 22 97 29 42 88 vhcurveto
          56 vlineto
          30 26 4 6 24 hvcurveto
          -263 83 444 -83 -107 vlineto
          -4 -19 -19 -3 -33 hhcurveto
          -58 -22 25 39 hvcurveto
          129 vlineto
          37 15 23 58 vhcurveto
          147 160 97 72 -479 -72 298 114 callsubr
          endchar
        </CharString>
        <CharString name="dvD_GHA">
          170 187 -13 rmoveto
          -67 -32 15 51 hvcurveto
          196 callsubr
          59 -83 hlineto
          346 callsubr
          vhcurveto
          253 92 rmoveto
          164 callsubr
          93 72 -630 -72 452 305 callgsubr
          -7 -59 vlineto
          123 callsubr
          endchar
        </CharString>
        <CharString name="dvD_G_RA">
          16 366 -153 rmoveto
          474 -83 -100 vlineto
          -4 -19 -20 -4 -32 hhcurveto
          -59 -21 25 40 hvcurveto
          85 vlineto
          37 14 23 59 vhcurveto
          147 160 95 72 -475 -72 295 305 callgsubr
          -90 vlineto
          -60 24 -42 47 -21 vhcurveto
          -48 vlineto
          -38 -6 -23 -52 -10 -16 2 0 vhcurveto
          -72 vlineto
          0 14 -5 24 96 30 42 88 vhcurveto
          38 5 vlineto
          30 25 3 8 25 hvcurveto
          -112 vlineto
          -208 -229 rlineto
          94 hlineto
          26 27 58 62 29 37 7 16 rlinecurve
          1 hlineto
          -2 -8 -1 -28 -24 vvcurveto
          -42 vlineto
          endchar
        </CharString>
        <CharString name="dvD_MA">
          241 364 115 rmoveto
          201 -80 -83 vlineto
          -2 -10 -29 -9 -39 hhcurveto
          -62 -19 25 36 hvcurveto
          78 vlineto
          37 14 25 62 vhcurveto
          152 160 144 -468 hlineto
          -73 vmoveto
          -116 84 657 92 72 -701 -72 296 -83 -67 vlineto
          -111 -50 -43 -94 hvcurveto
          -80 vlineto
          -86 53 -50 105 32 37 6 7 17 vhcurveto
          -171 80 53 vlineto
          endchar
        </CharString>
        <CharString name="dvD_NA">
          7 40 225 rmoveto
          -77 40 -42 78 -10 vhcurveto
          -64 -47 -71 -54 -5 -58 37 -42 rlinecurve
          25 -29 42 -2 0 vvcurveto
          55 47 rlineto
          0 -33 6 -15 18 vhcurveto
          -18 22 3 22 33 26 128 97 rcurveline
          -108 83 272 -83 -96 vlineto
          -5 193 callgsubr
          -58 -22 25 40 hvcurveto
          136 174 callsubr
        </CharString>
        <CharString name="dvD_R">
          9 477 -218 -37 callgsubr
          -345 445 rmoveto
          -80 43 -41 84 -8 vhcurveto
          -131 -165 rlineto
          98 hlineto
          137 175 rlineto
          1 2 1 1 hhcurveto
          -115 84 255 -84 -63 vlineto
          -14 -18 -15 -7 -38 hhcurveto
          -58 -21 25 39 hvcurveto
          134 166 callsubr
          -471 -72 292 -83 -63 hlineto
          -106 -51 -41 -93 hvcurveto
          endchar
        </CharString>
        <CharString name="dvD_RA">
          9 43 230 1 callsubr
          -471 -72 291 -83 -63 hlineto
          -106 -51 -41 -93 hvcurveto
          endchar
        </CharString>
        <CharString name="dvD_VA">
          15 208 144 callgsubr
          -76 406 rmoveto
          0 callsubr
          96 72 -476 -72 295 114 callsubr
          99 callgsubr
        </CharString>
        <CharString name="dvD_YA">
          83 515 655 rmoveto
          -543 -72 176 -69 hlineto
          -57 -4 -43 -24 -75 vvcurveto
          -26 vlineto
          -42 12 -34 40 -18 vhcurveto
          -39 -16 -14 -37 -42 vvcurveto
          -17 vlineto
          -98 60 -43 117 46 42 7 7 30 vhcurveto
          -52 81 583 92 vlineto
          -177 hmoveto
          -456 vlineto
          -7 -24 -41 -6 -39 hhcurveto
          -69 -33 12 61 hvcurveto
          10 vlineto
          36 16 26 58 vhcurveto
          32 70 -36 116 callgsubr
          18 vlineto
          42 22 12 45 vhcurveto
          33 122 hlineto
          endchar
        </CharString>
        <CharString name="dvE">
          27 360 93 rmoveto
          -10 -29 -43 -9 -49 hhcurveto
          -72 -21 27 47 hvcurveto
          435 69 callgsubr
          -487 -72 89 -437 vlineto
          -102 56 -49 120 53 45 10 10 25 vhcurveto
          endchar
        </CharString>
        <CharString name="dvEcandra">
          27 311 861 rmoveto
          -47 -26 -15 -64 -65 -26 15 47 vhcurveto
          -83 -3 hlineto
          -96 61 -37 113 113 61 37 96 vhcurveto
          3 vlineto
          -38 -768 rmoveto
          -10 -29 -43 -9 -50 hhcurveto
          -66 -23 26 44 hvcurveto
          439 69 callgsubr
          -487 -72 89 -441 vlineto
          326 callgsubr
          endchar
        </CharString>
        <CharString name="dvEight">
          7 callsubr
        </CharString>
        <CharString name="dvEyelash">
          -150 -28 583 rmoveto
          414 72 -414 hlineto
          414 -320 rmoveto
          -183 hlineto
          -64 -36 -1 52 hvcurveto
          -83 -7 hlineto
          -96 70 -22 113 vhcurveto
          183 hlineto
          endchar
        </CharString>
        <CharString name="dvEyelash_HA">
          231 253 136 rmoveto
          -88 54 -54 123 52 51 5 9 43 vhcurveto
          73 vlineto
          -9 -48 -39 -3 -55 hhcurveto
          232 callgsubr
          78 30 vlineto
          82 -37 42 -93 vhcurveto
          -54 hlineto
          -52 -16 18 33 hvcurveto
          11 vlineto
          33 14 19 52 vhcurveto
          161 152 97 72 -691 -72 509 -77 -76 hlineto
          -103 -48 -38 -84 hvcurveto
          -7 -57 vlineto
          -65 -36 5 51 hvcurveto
          -83 -6 hlineto
          -97 71 -27 113 vhcurveto
          76 hlineto
          8 -11 10 -8 13 -6 rrcurveto
          -34 -17 -17 -30 -47 vvcurveto
          endchar
        </CharString>
        <CharString name="dvEyelash_YA">
          296 450 520 175 callgsubr
          -40 hhcurveto
          -88 -39 34 69 hvcurveto
          40 282 callgsubr
          -91 157 55 callsubr
          -81 vlineto
          -57 -25 -13 -79 vhcurveto
          -61 hlineto
          -65 -35 5 51 hvcurveto
          -83 -7 hlineto
          -96 70 -27 113 vhcurveto
          40 -42 hlineto
          -129 92 -39 114 43 38 6 5 22 242 callgsubr
          -757 -72 vlineto
          endchar
        </CharString>
        <CharString name="dvFive">
          60 callsubr
        </CharString>
        <CharString name="dvFour">
          120 callgsubr
        </CharString>
        <CharString name="dvG">
          -149 203 583 rmoveto
          80 72 -311 37 callgsubr
          endchar
        </CharString>
        <CharString name="dvGA">
          80 512 655 rmoveto
          -540 37 callgsubr
          260 132 240 callsubr
        </CharString>
        <CharString name="dvGH">
          -121 363 153 rmoveto
          -6 -22 -53 -9 -40 hhcurveto
          -67 11 callsubr
          192 72 -375 -72 96 hlineto
          61 callsubr
          115 44 52 8 7 27 vhcurveto
          endchar
        </CharString>
        <CharString name="dvGHA">
          92 524 655 rmoveto
          -552 -72 96 hlineto
          36 callsubr
        </CharString>
        <CharString name="dvGH_MA">
          494 252 138 rmoveto
          -71 11 callsubr
          399 312 callgsubr
          -14 1 -14 3 -12 vhcurveto
          -6 -30 -34 -5 -32 hhcurveto
          302 53 4 callsubr
          -954 -72 96 hlineto
          61 callsubr
          123 55 53 13 9 34 vhcurveto
          -16 23 33 -8 44 162 callgsubr
        </CharString>
        <CharString name="dvGH_NA">
          480 252 138 rmoveto
          -71 11 callsubr
          580 223 callsubr
          -158 vlineto
          -16 1 -14 3 -13 vhcurveto
          -6 -29 -35 -5 -32 hhcurveto
          483 267 rmoveto
          -405 -94 callsubr
          -940 -72 96 vlineto
          61 callsubr
          123 55 53 12 9 34 vhcurveto
          -17 22 32 -8 42 -68 callgsubr
        </CharString>
        <CharString name="dvGH_R">
          -119 359 170 rmoveto
          -6 -37 -28 -3 -42 hhcurveto
          -71 -41 19 62 hvcurveto
          26 vlineto
          36 15 24 34 callgsubr
          54 vlineto
          41 9 22 0 vhcurveto
          202 72 -385 -72 96 hlineto
          289 callgsubr
          -56 206 callgsubr
          -36 vlineto
          202 callsubr
          endchar
        </CharString>
        <CharString name="dvGH_RA">
          93 526 655 rmoveto
          -554 -72 98 hlineto
          289 callgsubr
          -59 vlineto
          -45 11 -34 39 57 callsubr
          -25 vlineto
          -94 64 -51 105 -5 vhcurveto
          -141 -141 rlineto
          111 hlineto
          150 154 rlineto
          1 0 0 1 hhcurveto
          -105 85 583 93 vlineto
          -178 hmoveto
          -412 vlineto
          58 callgsubr
          endchar
        </CharString>
        <CharString name="dvGH_YA">
          399 252 155 rmoveto
          -71 -41 20 62 hvcurveto
          35 vlineto
          36 155 callgsubr
          79 -38 hlineto
          -57 -12 24 36 hvcurveto
          49 vlineto
          41 9 22 0 vhcurveto
          306 160 callgsubr
          -36 7 -30 13 -23 vhcurveto
          -9 -36 -42 -7 -33 hhcurveto
          300 365 -105 callsubr
          186 336 callgsubr
          93 72 -859 -72 96 vlineto
          289 callgsubr
          -52 vlineto
          -45 12 -33 38 -18 vhcurveto
          -40 -14 -16 -35 -49 vvcurveto
          -45 vlineto
          -99 70 -51 123 62 73 16 17 41 vhcurveto
          -19 35 44 -8 47 57 callgsubr
          vlineto
          endchar
        </CharString>
        <CharString name="dvG_BA">
          293 552 178 callsubr
          -107 -56 -43 -97 hvcurveto
          -159 102 callsubr
          -753 156 callgsubr
          vlineto
          -93 callsubr
          260 349 vlineto
          -77 -445 rmoveto
          -40 callgsubr
        </CharString>
        <CharString name="dvG_BHA">
          462 203 583 rmoveto
          57 72 -288 37 callgsubr
          314 -132 66 callgsubr
          -103 -43 -45 -82 hvcurveto
          -91 -62 callgsubr
        </CharString>
        <CharString name="dvG_BH_YA">
          750 203 583 rmoveto
          50 72 -281 37 callgsubr
          296 -132 260 callgsubr
          94 284 callgsubr
          64 hlineto
          144 hmoveto
          32 20 -7 -26 hvcurveto
          -49 vlineto
          50 callsubr
          221 callsubr
          -542 -72 173 vlineto
          0 7 -30 callgsubr
          -63 vlineto
          -50 -20 -17 -61 -3 vhcurveto
          19 -16 -29 9 -44 hhcurveto
          -66 109 hlineto
          87 -45 49 -101 -102 -44 -49 -87 -22 4 -26 200 callgsubr
          126 callgsubr
          -107 -64 vlineto
          -104 -43 -45 -83 hvcurveto
          -99 vlineto
          -82 43 209 callsubr
          154 vlineto
          322 178 25 callsubr
        </CharString>
        <CharString name="dvG_DA">
          274 307 209 rmoveto
          -74 callgsubr
          -734 37 callgsubr
          260 324 -83 -63 vlineto
          -107 -50 -41 -93 hvcurveto
          endchar
        </CharString>
        <CharString name="dvG_DHA">
          357 336 583 rmoveto
          0 -10 -22 -41 161 callgsubr
          -100 71 -50 113 48 33 6 7 27 vhcurveto
          -19 callsubr
          -538 37 callgsubr
          260 vlineto
          endchar
        </CharString>
        <CharString name="dvG_DH_VA">
          595 850 494 rmoveto
          4 -11 -34 240 callgsubr
          -14 1 -13 2 -12 vhcurveto
          -7 -32 -34 -5 -33 -41 callsubr
          -510 37 callgsubr
          260 131 vlineto
          228 callsubr
          -49 206 callgsubr
          -51 vlineto
          -98 71 -52 121 51 49 12 10 39 vhcurveto
          -32 callsubr
        </CharString>
        <CharString name="dvG_DH_YA">
          666 820 21 callsubr
          -510 37 callgsubr
          260 131 vlineto
          76 callgsubr
        </CharString>
        <CharString name="dvG_GA">
          321 754 655 rmoveto
          -782 37 callgsubr
          260 157 -255 vlineto
          -93 callsubr
          260 132 240 callsubr
        </CharString>
        <CharString name="dvG_GHA">
          357 789 655 rmoveto
          -817 37 callgsubr
          260 130 vlineto
          36 callsubr
        </CharString>
        <CharString name="dvG_JA">
          405 543 251 callsubr
          -865 37 callgsubr
          260 457 -99 -319 -77 107 312 callsubr
          -59 -34 -26 4 7 -28 vhcurveto
          -78 vlineto
          -7 26 24 -4 41 329 callsubr
          endchar
        </CharString>
        <CharString name="dvG_LA">
          485 308 161 rmoveto
          -92 callsubr
          -94 callsubr
          -945 156 callgsubr
          vlineto
          -93 callsubr
          260 537 -111 vlineto
          -42 callsubr
          -100 -48 -53 -87 hvcurveto
          endchar
        </CharString>
        <CharString name="dvG_MA">
          439 500 191 4 callsubr
          -900 37 callgsubr
          260 297 -149 -64 vlineto
          -69 callsubr
          114 vlineto
          endchar
        </CharString>
        <CharString name="dvG_NA">
          441 696 405 rmoveto
          -405 -94 callsubr
          -901 156 callgsubr
          vlineto
          -93 callsubr
          260 493 -101 -249 vlineto
          -98 -44 -45 -87 hvcurveto
          -46 callgsubr
        </CharString>
        <CharString name="dvG_NNA">
          489 626 583 rmoveto
          119 -583 90 callgsubr
          -950 37 callgsubr
          260 117 -329 vlineto
          44 callsubr
          -85 329 rmoveto
          -22 callgsubr
          329 vlineto
          endchar
        </CharString>
        <CharString name="dvG_N_YA">
          744 490 400 rmoveto
          2 290 callgsubr
          -139 vlineto
          -36 -13 -21 -48 -47 -13 22 35 vhcurveto
          151 vlineto
          36 13 21 47 vhcurveto
          457 120 12 callsubr
          109 -408 hlineto
          -6 -25 -34 -5 -41 296 callgsubr
          -90 194 callsubr
          7 -30 callgsubr
          -63 vlineto
          -43 -14 -18 -41 -6 vhcurveto
          60 -16 -53 27 -80 hhcurveto
          -170 hlineto
          -98 -44 -46 -87 hvcurveto
          -152 343 callgsubr
          141 180 callsubr
          40 hlineto
          47 30 -13 -37 hvcurveto
          -90 vlineto
          -129 92 -46 114 43 237 callsubr
          -1204 156 callgsubr
          vlineto
          -93 callsubr
          260 vlineto
          endchar
        </CharString>
        <CharString name="dvG_R">
          68 callgsubr
          endchar
        </CharString>
        <CharString name="dvG_RA">
          53 callsubr
          endchar
        </CharString>
        <CharString name="dvG_R_YA">
          368 523 520 175 callgsubr
          -40 hhcurveto
          -88 -39 35 70 hvcurveto
          57 vlineto
          80 2 45 296 callsubr
          -56 -25 -14 -79 vhcurveto
          -21 -106 hlineto
          -248 -281 rlineto
          103 hlineto
          83 90 37 41 24 30 15 22 rlinecurve
          -71 30 75 -27 87 hhcurveto
          43 38 6 5 22 hvcurveto
          226 callgsubr
          -830 -72 146 -235 vlineto
          -37 -16 -24 -8 callgsubr
          -81 vlineto
          -1 5 23 -2 13 hhcurveto
          90 48 53 85 hvcurveto
          240 vlineto
          endchar
        </CharString>
        <CharString name="dvG_SA">
          471 629 14 rmoveto
          78 vlineto
          -10 -33 -33 30 callgsubr
          -931 37 callgsubr
          260 316 -70 callgsubr
          97 -67 callgsubr
          endchar
        </CharString>
        <CharString name="dvG_VA">
          288 543 293 callgsubr
          -162 vlineto
          -48 callsubr
          -749 156 callgsubr
          vlineto
          -93 callsubr
          260 340 vlineto
          3 -433 -92 callgsubr
          endchar
        </CharString>
        <CharString name="dvG_YA">
          368 522 520 -63 callgsubr
          -65 callsubr
          93 72 -829 156 callgsubr
          vlineto
          -93 callsubr
          260 vlineto
          endchar
        </CharString>
        <CharString name="dvGx">
          -149 203 583 rmoveto
          80 72 -311 37 callgsubr
          -105 -315 -53 callgsubr
          endchar
        </CharString>
        <CharString name="dvGxA">
          83 111 5 -53 callgsubr
          404 650 rmoveto
          -540 37 callgsubr
          260 132 240 callsubr
        </CharString>
        <CharString name="dvGx_R">
          68 callgsubr
          114 -453 -53 callgsubr
          endchar
        </CharString>
        <CharString name="dvGx_RA">
          53 callsubr
          92 -131 -53 callgsubr
          endchar
        </CharString>
        <CharString name="dvH">
          23 46 139 rmoveto
          -92 67 -53 123 59 43 7 11 31 vhcurveto
          -57 callsubr
          -484 -72 302 -77 -77 hlineto
          15 callgsubr
          336 -397 -37 callgsubr
          endchar
        </CharString>
        <CharString name="dvHA">
          23 46 139 rmoveto
          -92 67 -53 123 59 43 7 11 31 vhcurveto
          -57 callsubr
          -484 -72 302 -77 -77 hlineto
          15 callgsubr
          endchar
        </CharString>
        <CharString name="dvHA_mU">
          23 269 -6 rmoveto
          49 9 -17 -38 -37 -9 -18 -51 hvcurveto
          -71 hlineto
          -31 -18 6 38 -35 hvcurveto
          -41 42 rlineto
          -103 hlineto
          84 -90 rlineto
          -54 47 42 -16 48 hhcurveto
          88 hlineto
          93 38 37 93 93 -39 36 -90 hvcurveto
          -52 hlineto
          -74 -23 28 43 hvcurveto
          46 -34 callgsubr
          -484 -72 302 -77 -77 hlineto
          15 callgsubr
          -48 vlineto
          -89 54 -54 127 1 vhcurveto
          endchar
        </CharString>
        <CharString name="dvHA_mUU">
          20 43 136 rmoveto
          -58 22 -35 46 -19 vhcurveto
          -21 -16 -10 -26 -39 vvcurveto
          -85 36 -36 87 15 72 2 0 vhcurveto
          71 vlineto
          0 -70 -2 -11 -41 -10 17 33 34 8 17 44 vhcurveto
          27 hlineto
          50 15 -8 -42 35 hvcurveto
          95 -117 rlineto
          98 hlineto
          -138 170 rlineto
          53 -44 -36 19 -68 hhcurveto
          -20 hlineto
          232 callgsubr
          77 30 vlineto
          82 -36 42 -93 vhcurveto
          -55 301 callsubr
          162 152 97 72 -481 -72 299 -77 -77 hlineto
          15 callgsubr
          endchar
        </CharString>
        <CharString name="dvHA_mvR">
          83 127 201 rmoveto
          34 17 20 53 vhcurveto
          131 hlineto
          35 16 -5 -33 -33 -16 -4 -35 hvcurveto
          -4 hlineto
          -78 -51 -24 -86 -94 64 -19 91 44 44 7 8 30 hvcurveto
          69 vlineto
          -7 -33 -38 -5 -39 hhcurveto
          -60 -23 5 36 32 17 5 32 hvcurveto
          8 hlineto
          85 42 31 79 79 -42 30 -85 hvcurveto
          -135 hlineto
          -52 -15 18 33 hvcurveto
          2 vlineto
          33 14 19 52 vhcurveto
          212 152 107 72 -543 -72 351 -77 -125 hlineto
          -103 -48 -38 -84 hvcurveto
          -8 vlineto
          1 -46 18 -27 29 -13 rrcurveto
          -30 -14 -19 -26 -47 vvcurveto
          -229 vlineto
          -98 72 -55 123 59 43 7 11 30 vhcurveto
          69 vlineto
          -12 -38 -35 -5 -55 hhcurveto
          -77 -41 27 58 hvcurveto
          endchar
        </CharString>
        <CharString name="dvH_LA">
          612 435 161 rmoveto
          -92 callsubr
          -94 callsubr
          -684 -72 507 -111 vlineto
          -42 callsubr
          -100 -48 -53 -87 hvcurveto
          endchar
        </CharString>
        <CharString name="dvH_MA">
          245 501 186 rmoveto
          -119 16 hlineto
          77 -41 40 -93 vhcurveto
          -43 hlineto
          -52 -15 18 37 hvcurveto
          2 vlineto
          38 14 19 52 vhcurveto
          174 150 123 hlineto
          -470 vmoveto
          -134 84 604 92 72 -705 -72 322 -77 -90 vlineto
          -103 -48 -36 -88 hvcurveto
          -6 vlineto
          -50 17 -28 33 -16 vhcurveto
          -34 -15 -17 -28 -47 vvcurveto
          -78 294 callsubr
          86 vlineto
          34 19 19 53 vhcurveto
          32 hlineto
          51 9 -19 -34 hvcurveto
          -140 81 58 vlineto
          endchar
        </CharString>
        <CharString name="dvH_NA">
          576 441 350 rmoveto
          -33 -242 vlineto
          -52 -15 18 33 hvcurveto
          11 vlineto
          33 13 19 52 vhcurveto
          162 152 473 223 callsubr
          391 55 rmoveto
          -405 -94 callsubr
          -1037 -72 302 -77 -77 vlineto
          15 callgsubr
          -48 vlineto
          -88 54 -54 122 53 51 5 9 43 vhcurveto
          73 vlineto
          -9 -48 -40 -3 -54 hhcurveto
          218 callsubr
          236 -52 -21 callgsubr
        </CharString>
        <CharString name="dvH_NNA">
          645 222 -6 rmoveto
          53 51 5 9 43 hvcurveto
          73 vlineto
          -9 -48 -40 -3 -54 hhcurveto
          218 callsubr
          270 hlineto
          -81 4 46 -48 103 hhcurveto
          107 46 52 87 hvcurveto
          329 119 -583 90 callgsubr
          -1105 -72 302 -77 -77 vlineto
          15 callgsubr
          -48 vlineto
          -88 54 -54 122 vhcurveto
          253 589 rmoveto
          -266 -276 vlineto
          -52 -15 18 33 hvcurveto
          11 vlineto
          33 13 19 52 vhcurveto
          162 152 hlineto
          337 hmoveto
          -22 callgsubr
          329 vlineto
          endchar
        </CharString>
        <CharString name="dvH_R">
          2 callsubr
          352 -411 -37 callgsubr
          endchar
        </CharString>
        <CharString name="dvH_RA">
          2 callsubr
          endchar
        </CharString>
        <CharString name="dvH_VA">
          418 673 293 callgsubr
          -162 vlineto
          -48 callsubr
          -488 -72 310 vlineto
          3 -433 -92 callgsubr
          endchar
        </CharString>
        <CharString name="dvH_YA">
          238 410 138 rmoveto
          -34 hlineto
          8 12 4 17 22 vvcurveto
          17 vlineto
          77 -45 40 -102 vhcurveto
          -42 hlineto
          -51 -16 18 38 hvcurveto
          2 vlineto
          38 14 20 52 vhcurveto
          178 144 117 -435 hlineto
          -5 -17 -33 -5 -33 hhcurveto
          -157 hmoveto
          -75 152 vlineto
          38 34 5 5 16 hvcurveto
          -91 85 601 92 72 -698 -72 319 -72 -93 vlineto
          -103 -48 -37 -88 hvcurveto
          -4 vlineto
          -51 18 -29 32 -15 vhcurveto
          -34 -18 -17 -28 -47 vvcurveto
          -80 294 callsubr
          87 vlineto
          36 17 22 57 vhcurveto
          34 hlineto
          59 8 -22 -37 hvcurveto
          -18 vlineto
          -30 -16 -9 -37 vhcurveto
          endchar
        </CharString>
        <CharString name="dvI">
          0 129 170 rmoveto
          -83 -240 83 96 hlineto
          -4 16 31 -4 36 hhcurveto
          113 44 45 88 hvcurveto
          36 vlineto
          87 -49 43 -107 vhcurveto
          -24 hlineto
          -53 -14 21 33 hvcurveto
          5 vlineto
          34 14 19 53 vhcurveto
          153 154 90 72 -460 -72 285 -79 -68 hlineto
          -102 -50 -40 -86 hvcurveto
          -8 vlineto
          -87 52 -40 100 vhcurveto
          24 hlineto
          57 14 -23 -35 hvcurveto
          -31 vlineto
          -39 -22 -21 -58 -32 -26 4 4 -17 vhcurveto
          endchar
        </CharString>
        <CharString name="dvII">
          0 337 655 rmoveto
          -15 30 -15 40 28 vvcurveto
          47 31 12 38 13 14 -2 -1 7 vhcurveto
          75 vlineto
          2 -8 -17 3 -33 hhcurveto
          -66 -65 -29 -94 -41 17 -39 15 -31 25 callgsubr
        </CharString>
        <CharString name="dvII_Anusvara">
          1 409 706 rmoveto
          311 callgsubr
          -24 10 -19 32 hvcurveto
          -72 -51 rmoveto
          -20 35 -16 49 33 vvcurveto
          51 34 18 42 12 14 -1 -1 7 vhcurveto
          71 vlineto
          1 -8 -17 3 -27 hhcurveto
          -76 -66 -31 -98 -46 17 -49 20 -35 25 callgsubr
        </CharString>
        <CharString name="dvJ">
          -56 420 655 rmoveto
          -448 -72 448 hlineto
          -99 vmoveto
          -325 -102 callsubr
          132 hlineto
          endchar
        </CharString>
        <CharString name="dvJA">
          159 297 347 71 callgsubr
        </CharString>
        <CharString name="dvJH">
          6 362 142 rmoveto
          41 vlineto
          248 callsubr
          149 69 -286 hlineto
          117 callsubr
          131 72 -515 -72 299 -78 -68 hlineto
          14 callsubr
          87 vlineto
          176 callgsubr
          endchar
        </CharString>
        <CharString name="dvJHA">
          209 206 79 callsubr
          -669 -72 295 -78 -68 hlineto
          -102 -50 -40 -87 hvcurveto
          145 callsubr
        </CharString>
        <CharString name="dvJH_MA">
          603 201 317 rmoveto
          117 callsubr
          307 216 callgsubr
          -100 -42 -41 -76 -4 hvcurveto
          210 -126 4 callsubr
          -1063 -72 299 -78 -68 hlineto
          14 callsubr
          87 vlineto
          176 callgsubr
          41 vlineto
          248 callsubr
          115 -59 hlineto
          63 callgsubr
        </CharString>
        <CharString name="dvJH_NA">
          605 469 350 rmoveto
          -33 -268 vlineto
          117 callsubr
          504 223 callsubr
          391 55 rmoveto
          -405 -94 callsubr
          -1065 -72 299 -78 -68 vlineto
          14 callsubr
          87 vlineto
          176 callgsubr
          41 vlineto
          248 callsubr
          131 -56 -21 callgsubr
        </CharString>
        <CharString name="dvJH_R">
          62 541 224 rmoveto
          -264 -310 rlineto
          97 hlineto
          91 102 35 42 35 48 6 17 rlinecurve
          -183 60 rmoveto
          248 callsubr
          207 69 -336 hlineto
          -50 -15 20 34 hvcurveto
          6 vlineto
          34 15 19 52 vhcurveto
          208 153 125 72 -568 -72 358 -78 -123 hlineto
          -102 250 callsubr
          -88 53 -39 93 vhcurveto
          4 hlineto
          54 15 -24 -34 hvcurveto
          -38 vlineto
          -37 325 callgsubr
          -226 82 87 vlineto
          -5 18 25 -4 31 hhcurveto
          102 49 39 92 hvcurveto
          endchar
        </CharString>
        <CharString name="dvJH_RA">
          262 358 183 rmoveto
          248 callsubr
          172 -66 hlineto
          -229 -268 rlineto
          97 hlineto
          91 102 35 42 20 33 7 17 rlinecurve
          1 hlineto
          -4 -24 -1 -27 -24 vvcurveto
          -37 79 587 93 72 -723 -72 358 -78 -123 vlineto
          -102 250 callsubr
          -88 54 -39 93 vhcurveto
          3 hlineto
          54 15 -24 -34 hvcurveto
          -36 vlineto
          -36 325 callgsubr
          -227 82 87 vlineto
          -5 18 25 -3 31 hhcurveto
          102 49 39 92 hvcurveto
          57 285 rmoveto
          153 102 -266 -312 vlineto
          -50 1 -15 19 34 vvcurveto
          6 vlineto
          34 15 19 52 vhcurveto
          endchar
        </CharString>
        <CharString name="dvJH_YA">
          519 464 387 rmoveto
          -70 -263 vlineto
          117 callsubr
          226 hlineto
          -41 callgsubr
          -56 -25 -14 -79 vhcurveto
          187 133 -105 callsubr
          -539 -424 rmoveto
          176 callgsubr
          41 vlineto
          248 callsubr
          126 hlineto
          -120 6 91 -43 110 83 callsubr
          -980 -72 299 -78 -68 vlineto
          14 callsubr
          vlineto
          endchar
        </CharString>
        <CharString name="dvJ_BA">
          395 655 178 callsubr
          -42 -35 -7 -14 -26 hvcurveto
          -373 -102 callsubr
          125 hlineto
          -3 -13 -2 -15 -17 vvcurveto
          -159 102 callsubr
          -856 -72 683 vlineto
          -77 -445 rmoveto
          -40 callgsubr
        </CharString>
        <CharString name="dvJ_DA">
          373 406 209 rmoveto
          -89 53 -50 103 34 23 3 6 22 vhcurveto
          -85 83 255 -83 -94 vlineto
          -6 193 callgsubr
          -58 142 callgsubr
          22 5 17 16 10 vhcurveto
          0 vlineto
          0 vlineto
          7 11 16 4 24 hhcurveto
          148 160 94 72 -833 -72 654 -83 -63 hlineto
          -36 -29 -5 -9 -23 hvcurveto
          -380 -78 107 hlineto
          0 10 -21 -42 vvcurveto
          -153 vlineto
          -45 -26 -25 -59 -34 -26 4 7 -28 vhcurveto
          -78 vlineto
          -7 26 24 -4 41 329 callsubr
          159 vlineto
          41 -9 22 0 vhcurveto
          123 hlineto
          -3 -14 -2 -15 -17 vvcurveto
          endchar
        </CharString>
        <CharString name="dvJ_DDA">
          359 722 -12 callsubr
          -819 -72 635 -78 -62 hlineto
          -43 -33 -7 -14 -24 hvcurveto
          -350 -102 callsubr
          108 hlineto
          -2 -10 -1 -10 -12 vvcurveto
          -6 callgsubr
        </CharString>
        <CharString name="dvJ_JA">
          512 650 347 17 callgsubr
        </CharString>
        <CharString name="dvJ_JHA">
          555 551 79 callsubr
          -1014 -72 640 -78 -68 hlineto
          -42 -33 -7 -14 -25 hvcurveto
          -349 -102 callsubr
          107 hlineto
          -2 -10 -1 -10 -12 vvcurveto
          145 callsubr
        </CharString>
        <CharString name="dvJ_J_NYA">
          582 420 484 rmoveto
          -325 -102 callsubr
          132 hlineto
          417 173 rmoveto
          -99 -327 -74 117 vlineto
          -17 callgsubr
          125 -410 -36 callsubr
          -1043 -72 hlineto
          endchar
        </CharString>
        <CharString name="dvJ_J_VA">
          743 998 272 callsubr
          -724 31 callgsubr
          124 hlineto
          -3 -13 -2 -15 -16 vvcurveto
          -162 vlineto
          -48 callsubr
          -1204 -72 1026 vlineto
          3 -433 -92 callgsubr
          endchar
        </CharString>
        <CharString name="dvJ_J_YA">
          820 974 520 -105 callsubr
          -91 138 55 callsubr
          -63 vlineto
          -43 -15 -18 -42 -6 vhcurveto
          61 -5 -45 33 -93 hhcurveto
          -596 31 callgsubr
          41 hlineto
          66 17 -10 -43 hvcurveto
          -97 159 callsubr
          93 72 -1281 -72 vlineto
          endchar
        </CharString>
        <CharString name="dvJ_KA">
          555 622 583 14 callgsubr
          -38 -30 -7 -13 -22 hvcurveto
          -367 -102 callsubr
          123 hlineto
          284 callsubr
          -176 -72 callgsubr
          -1016 -72 vlineto
          endchar
        </CharString>
        <CharString name="dvJ_MA">
          542 685 261 callsubr
          -196 -243 -85 callsubr
          196 -362 rmoveto
          263 callgsubr
          -1003 -72 631 216 callgsubr
          -18 -17 -1 -3 -14 hvcurveto
          35 -18 -46 19 -72 hhcurveto
          -259 -102 callsubr
          52 hlineto
          40 25 -4 -14 13 hvcurveto
          -17 -21 -8 -28 -36 233 callsubr
        </CharString>
        <CharString name="dvJ_NA">
          548 803 405 rmoveto
          -405 -94 callsubr
          -1008 -72 831 317 callsubr
          -47 -35 -10 -21 -23 hvcurveto
          23 -24 -40 10 -47 hhcurveto
          -243 -102 callsubr
          62 hlineto
          33 21 -8 -13 12 hvcurveto
          284 callsubr
          -46 callgsubr
        </CharString>
        <CharString name="dvJ_NY">
          2 516 655 rmoveto
          -544 -72 544 hlineto
          -99 vmoveto
          -378 -74 117 hlineto
          -17 callgsubr
          176 hlineto
          endchar
        </CharString>
        <CharString name="dvJ_NYA">
          210 465 583 rmoveto
          -99 -327 -74 117 vlineto
          -17 callgsubr
          125 -410 -36 callsubr
          -671 -72 hlineto
          endchar
        </CharString>
        <CharString name="dvJ_NY_YA">
          514 255 410 rmoveto
          -17 callgsubr
          43 hlineto
          57 19 -8 -42 hvcurveto
          -100 vlineto
          -129 85 -46 114 57 34 13 18 20 vhcurveto
          -116 -36 callsubr
          -975 -72 559 vlineto
          40 14 -23 -40 hvcurveto
          -51 vlineto
          -43 -14 -18 -42 -6 vhcurveto
          61 -4 -59 21 -77 hhcurveto
          -251 -74 hlineto
          405 -141 rmoveto
          304 callsubr
          63 329 callgsubr
          122 -342 hlineto
          -53 -9 -28 -24 -71 hhcurveto
          -88 -30 35 70 hvcurveto
          endchar
        </CharString>
        <CharString name="dvJ_R">
          -37 153 42 callsubr
          endchar
        </CharString>
        <CharString name="dvJ_RA">
          171 427 27 callgsubr
          endchar
        </CharString>
        <CharString name="dvJ_TA">
          404 414 131 rmoveto
          -83 38 -73 callgsubr
          93 72 -865 -72 687 -93 vlineto
          168 callsubr
          -35 -28 -6 -11 -23 hvcurveto
          -390 -102 callsubr
          133 hlineto
          -5 -16 -2 -17 -19 vvcurveto
          endchar
        </CharString>
        <CharString name="dvJ_TTA">
          362 497 295 callsubr
          -818 -72 643 -84 -43 hlineto
          -34 -29 -5 -10 -23 hvcurveto
          -391 -102 callsubr
          132 hlineto
          -5 -16 -2 -17 -20 165 callgsubr
        </CharString>
        <CharString name="dvJ_VA">
          391 645 272 callsubr
          -371 -102 callsubr
          124 hlineto
          -3 -13 -2 -15 -16 vvcurveto
          -162 vlineto
          -48 callsubr
          -851 -72 673 vlineto
          3 -433 -92 callgsubr
          endchar
        </CharString>
        <CharString name="dvJ_YA">
          466 620 520 -58 callgsubr
          -96 callsubr
          304 callsubr
          -91 126 rmoveto
          0 7 -30 callgsubr
          -51 vlineto
          -43 -14 -18 -39 -6 vhcurveto
          60 -6 -56 22 -79 hhcurveto
          -247 -102 callsubr
          40 hlineto
          59 24 -6 -44 hvcurveto
          -100 140 callgsubr
          -926 -72 vlineto
          endchar
        </CharString>
        <CharString name="dvJx">
          -56 93 -119 rmoveto
          38 13 22 29 29 -12 22 -39 -38 -13 330 callgsubr
          327 774 rmoveto
          -448 -72 448 hlineto
          -99 vmoveto
          -325 -102 callsubr
          132 hlineto
          endchar
        </CharString>
        <CharString name="dvJxA">
          159 45 -102 rmoveto
          160 callsubr
          252 449 71 callgsubr
        </CharString>
        <CharString name="dvJx_JxA">
          512 34 8 rmoveto
          -39 -12 -22 -29 -29 12 -22 39 215 callsubr
          29 -12 22 -38 hvcurveto
          358 -102 rmoveto
          215 callsubr
          29 -11 22 -39 -38 -13 330 callgsubr
          258 441 17 callgsubr
        </CharString>
        <CharString name="dvJx_R">
          -17 165 42 callsubr
          -416 -456 -53 callgsubr
          endchar
        </CharString>
        <CharString name="dvJx_RA">
          182 438 27 callgsubr
          -254 -448 -53 callgsubr
          endchar
        </CharString>
        <CharString name="dvJx_YA">
          466 34 -98 0 callgsubr
          586 618 -58 callgsubr
          -96 callsubr
          304 callsubr
          -91 126 rmoveto
          0 7 -30 callgsubr
          -51 vlineto
          -43 -14 -18 -39 -6 vhcurveto
          60 -6 -56 22 -79 hhcurveto
          -247 -77 107 hlineto
          0 10 -22 -42 vvcurveto
          -147 vlineto
          -44 -26 -26 -59 -34 -26 4 7 -28 vhcurveto
          -78 vlineto
          -7 26 24 -4 41 329 callsubr
          153 16 callsubr
          40 hlineto
          59 24 -6 -44 hvcurveto
          -100 140 callgsubr
          -926 -72 vlineto
          endchar
        </CharString>
        <CharString name="dvK">
          3 341 422 rmoveto
          -33 callsubr
          437 -285 72 617 -72 -248 -87 vlineto
          6 17 29 2 22 hhcurveto
          109 31 -53 -81 hvcurveto
          -19 -78 17 vlineto
          39 -11 23 -57 -20 -23 -2 -6 -19 vhcurveto
          endchar
        </CharString>
        <CharString name="dvKA">
          191 257 583 -6 callsubr
        </CharString>
        <CharString name="dvKH">
          136 465 253 -23 callsubr
        </CharString>
        <CharString name="dvKHA">
          343 386 253 -13 callgsubr
          -803 -72 271 vlineto
          0 12 -22 -41 vvcurveto
          -121 vlineto
          -45 -18 -28 -56 -19 -20 2 3 -17 vhcurveto
          114 -82 -264 vlineto
          -125 85 -60 137 49 54 7 9 35 vhcurveto
          80 vlineto
          -10 -32 -46 -9 -55 -20 callsubr
          endchar
        </CharString>
        <CharString name="dvKH_KHA">
          899 5 callsubr
          691 -52 95 callsubr
          -14 128 callgsubr
          14 24 55 28 24 -4 -3 14 vhcurveto
          -213 -165 -13 callgsubr
          -1360 -72 271 vlineto
          -101 callsubr
          475 hlineto
          -56 callgsubr
          -55 -20 98 callsubr
          34 vlineto
          87 -41 47 -108 -108 -38 -47 -87 vhcurveto
          -112 vlineto
          -92 38 -42 108 29 24 3 6 20 vhcurveto
          -89 21 79 -43 116 hhcurveto
          49 54 7 9 35 hvcurveto
          -91 callgsubr
          274 -90 hlineto
          3 -16 -28 5 -30 hhcurveto
          -104 -35 -49 -87 hvcurveto
          endchar
        </CharString>
        <CharString name="dvKH_MA">
          746 806 191 -40 callsubr
          -9 22 35 vhcurveto
          114 vlineto
          35 9 8 callsubr
          83 264 callsubr
          113 35 callgsubr
          -1206 -72 271 hlineto
          -101 callsubr
          481 216 callgsubr
          -28 -24 -3 -7 -19 hvcurveto
          49 -16 -42 26 -80 hhcurveto
          -9 callsubr
          31 25 3 8 20 vhcurveto
          -46 17 41 -24 75 325 callsubr
          -537 -109 -72 callsubr
          endchar
        </CharString>
        <CharString name="dvKH_NA">
          736 5 callsubr
          526 152 rmoveto
          -405 -94 callsubr
          -1196 -72 271 vlineto
          -101 callsubr
          666 -101 -249 hlineto
          -41 -31 -8 -15 -23 hvcurveto
          26 -20 -36 14 -58 hhcurveto
          -9 callsubr
          31 25 4 9 20 vhcurveto
          -48 18 43 -26 72 -68 callgsubr
        </CharString>
        <CharString name="dvKH_R">
          137 -28 callgsubr
          endchar
        </CharString>
        <CharString name="dvKH_RA">
          342 -29 callsubr
          endchar
        </CharString>
        <CharString name="dvKH_SHA">
          744 465 253 rmoveto
          75 vlineto
          37 12 24 56 55 12 -24 -37 vhcurveto
          -75 92 callsubr
          216 72 -569 -4 callsubr
          596 643 103 callgsubr
          -106 -107 -50 -52 -87 vhcurveto
          -13 2 -15 -3 vvcurveto
          85 hlineto
          0 -2 17 11 vvcurveto
          36 14 28 58 57 14 -27 -36 vhcurveto
          -133 vlineto
          -36 -14 -26 -57 -11 -30 1 3 -33 vhcurveto
          0 219 callgsubr
          -75 133 callgsubr
          101 vlineto
          -6 16 29 -6 328 callgsubr
          endchar
        </CharString>
        <CharString name="dvKH_TA">
          586 403 12 -29 callgsubr
          62 241 -72 callsubr
          endchar
        </CharString>
        <CharString name="dvKH_VA">
          584 5 callsubr
          376 -103 -92 callgsubr
          -3 73 98 callgsubr
          -53 -39 -14 -24 -25 hvcurveto
          20 -21 -33 12 -49 hhcurveto
          -9 callsubr
          34 26 6 10 20 vhcurveto
          -46 21 45 -24 74 151 callgsubr
          -1044 -72 271 vlineto
          -101 callsubr
          513 hlineto
          endchar
        </CharString>
        <CharString name="dvKH_YA">
          655 5 callsubr
          344 267 -105 callsubr
          -91 138 55 callsubr
          -63 vlineto
          -43 -15 -18 -42 -6 vhcurveto
          65 -6 -34 44 -96 hhcurveto
          -9 callsubr
          48 32 11 19 22 vhcurveto
          -46 37 63 -18 72 83 callsubr
          -1116 -72 271 vlineto
          -101 callsubr
          endchar
        </CharString>
        <CharString name="dvKHx">
          137 38 -117 rmoveto
          39 249 callgsubr
          -38 309 callgsubr
          12 -22 38 hvcurveto
          427 370 -23 callsubr
        </CharString>
        <CharString name="dvKHxA">
          344 40 -117 -34 callsubr
          348 370 -13 callgsubr
          -805 -72 273 vlineto
          -56 callgsubr
          -55 -20 -20 2 3 -17 vhcurveto
          114 -82 -264 vlineto
          -125 85 -60 137 49 54 7 9 35 vhcurveto
          80 vlineto
          -10 -32 -46 -9 -55 -20 callsubr
          endchar
        </CharString>
        <CharString name="dvKHx_MA">
          750 5 callsubr
          -425 -370 94 callgsubr
          770 308 4 callsubr
          -1210 -72 271 hlineto
          -101 callsubr
          485 216 callgsubr
          -30 -25 -4 -7 -20 hvcurveto
          50 -16 -41 26 -81 hhcurveto
          -9 callsubr
          31 25 3 8 21 vhcurveto
          -46 17 43 -24 76 162 callgsubr
        </CharString>
        <CharString name="dvKHx_R">
          136 -28 callgsubr
          305 34 -53 callgsubr
          endchar
        </CharString>
        <CharString name="dvKHx_RA">
          348 -29 callsubr
          -111 -517 -53 callgsubr
          endchar
        </CharString>
</ttFont>
